<svg width="148" height="167" viewBox="0 0 148 167" fill="none" xmlns="http://www.w3.org/2000/svg">
<g clip-path="url(#clip0_61_3525)">
<path d="M90.9128 57.6056C90.924 57.6727 90.9575 57.7286 91.0246 57.7509C92.8904 58.4552 93.8625 59.2377 93.9295 60.0874V60.0985C93.9965 60.5457 94.1641 61.7866 94.3317 63.5864C94.3429 63.6758 94.4099 63.7317 94.4881 63.7429C95.3484 63.7764 96.164 64.1118 96.7897 64.7043C96.8232 64.7378 96.8679 64.749 96.9014 64.749C96.935 64.749 96.9573 64.7378 96.9796 64.7267L133.291 44.392C133.302 44.3808 133.313 44.3808 133.325 44.3696C137.157 40.9824 139.257 37.2262 139.391 33.5148C139.47 31.3349 138.855 29.7363 138.576 29.1438C138.553 29.0991 138.52 29.0655 138.475 29.0543C138.431 29.0432 138.386 29.0432 138.341 29.0655L90.9911 57.4491C90.9352 57.4826 90.9128 57.5497 90.9128 57.6056Z" fill="#EDEBFF"/>
<path d="M93.8513 63.7876C93.9407 63.7765 94.0077 63.6982 93.9965 63.6088C93.9183 62.8039 93.8401 62.0325 93.7507 61.2947C93.7396 61.2276 93.6949 61.1718 93.639 61.1606C93.572 61.1382 93.5049 61.1606 93.4603 61.2053C92.6111 62.0996 90.6335 62.9045 87.7286 63.5417C83.807 64.4025 78.5893 64.872 73.0476 64.872C67.5059 64.872 62.2883 64.4025 58.3666 63.5417C55.4505 62.9045 53.4618 62.0996 52.6238 61.1941C52.5791 61.1494 52.5121 61.127 52.445 61.1494C52.378 61.1718 52.3333 61.2277 52.3333 61.2835C52.2328 62.0661 52.1434 62.9157 52.0652 63.7876C52.054 63.8659 52.0987 63.933 52.1769 63.9553C53.0819 64.2795 53.8081 64.9503 54.1992 65.8446C56.3332 70.5845 56.1991 76.2187 55.7075 80.0979C55.484 81.8977 54.0651 83.3286 52.2663 83.5857C52.1769 83.5969 52.1099 83.6752 52.121 83.7646C52.1322 83.8764 52.1434 83.9882 52.1546 84.1111C52.1546 84.1559 52.1881 84.2006 52.2216 84.2229C52.2551 84.2453 52.2998 84.2677 52.3557 84.2565C56.2438 83.5969 59.4951 83.0491 62.0313 82.6355C63.7631 82.356 65.5284 82.915 66.7685 84.1447C66.802 84.1782 66.8579 84.2006 66.9138 84.1894C67.1149 84.1559 67.4277 84.1335 67.7853 84.1894C67.8299 84.2006 67.8858 84.1782 67.9193 84.1559C67.9528 84.1223 67.9752 84.0776 67.9752 84.0329V73.3234C67.9752 71.9148 69.1148 70.7745 70.5226 70.7745H76.1425C77.5502 70.7745 78.6899 71.9148 78.6899 73.3234V82.5461C78.6899 82.6243 78.7457 82.6914 78.8128 82.7026C79.2038 82.8032 79.5278 82.9485 79.8071 83.1274C79.8518 83.1609 79.9189 83.1609 79.9747 83.1386C81.0026 82.6243 82.1534 82.4566 83.293 82.6467C85.9857 83.0827 89.4827 83.6752 93.6949 84.3906C93.7061 84.3906 93.7172 84.3906 93.7284 84.3906C93.7619 84.3906 93.7954 84.3794 93.829 84.3571C93.8625 84.3347 93.8848 84.29 93.896 84.2453C93.9072 84.1 93.9295 83.9658 93.9407 83.8205C93.9407 83.7758 93.9295 83.7311 93.896 83.6863C93.8625 83.6528 93.8178 83.6304 93.7731 83.6304C93.7507 83.6304 93.7284 83.6304 93.7061 83.6304C93.6837 83.6304 93.6614 83.6304 93.639 83.6304H93.6278C91.5832 83.6304 89.8626 82.1101 89.6057 80.0979C89.1252 76.2076 88.9911 70.5845 91.114 65.8446C91.6167 64.7267 92.6335 63.9553 93.8513 63.7876Z" fill="#EDEBFF"/>
<path d="M77.6506 85.1508C77.6171 85.0949 77.5501 85.0726 77.4831 85.0837C77.3266 85.1173 77.1702 85.1508 77.025 85.2067L76.9915 85.2179C76.6116 85.2738 76.2429 85.2961 75.9077 85.2961C74.3547 85.2961 73.8184 84.7148 73.6955 84.5471C73.6843 84.536 73.6843 84.5248 73.6731 84.5248C73.4162 84.2788 73.3603 84.0329 73.3603 83.8652C73.3603 83.5299 73.5726 83.1609 73.986 82.792C74.0754 82.7138 74.0977 82.5908 74.053 82.479C73.9972 82.3672 73.8854 82.3002 73.7625 82.3225C72.0419 82.6132 70.2543 84.3795 69.5616 85.1173C69.5057 85.1732 69.5057 85.2626 69.5504 85.3297C69.7068 85.5421 69.8409 85.788 69.9526 86.0563C70.2431 86.7271 70.3548 87.4872 70.2878 88.2362C70.1872 89.3206 69.8632 90.1814 69.3046 90.8074C69.2487 90.8745 69.2487 90.9639 69.3046 91.031C69.6509 91.4334 70.6453 92.1489 73.2374 92.1489C74.4217 92.1489 75.9524 92.0036 77.9076 91.6011C77.9635 91.5899 78.0082 91.5564 78.0305 91.5005C78.0529 91.4558 78.0529 91.3887 78.0193 91.344C77.8294 91.0198 77.673 90.6844 77.5724 90.3379C77.4272 89.8795 77.2931 89.4212 77.1814 88.974C76.8574 87.7444 77.025 86.4476 77.6506 85.3409C77.6842 85.2738 77.6842 85.2067 77.6506 85.1508Z" fill="url(#paint0_linear_61_3525)"/>
<path d="M67.7404 90.3267C67.651 90.6061 67.5393 90.8856 67.3941 91.1427C67.3605 91.1986 67.3717 91.2657 67.4052 91.3216C67.4387 91.3663 67.4834 91.3887 67.5393 91.3887C67.5505 91.3887 67.5616 91.3887 67.5728 91.3887C68.9694 91.1204 69.7962 90.0137 69.9526 88.1915C70.0197 87.4872 69.9079 86.7829 69.6398 86.1681C69.0253 84.7371 67.9862 84.5024 67.4164 84.4912C67.3494 84.4912 67.2935 84.5247 67.26 84.5806C67.2265 84.6365 67.2376 84.7036 67.2712 84.7595C68.1985 86.0004 68.489 87.4872 68.1091 88.9628C68.0197 89.41 67.8857 89.8683 67.7404 90.3267Z" fill="#00447C"/>
<path d="M69.1371 84.8378C69.1706 84.8713 69.2041 84.8825 69.2488 84.8825C69.2935 84.8825 69.3382 84.8601 69.3717 84.8266C70.0756 84.0664 71.9079 82.2778 73.7179 81.9759C73.9861 81.9312 74.2542 82.0654 74.3659 82.3113C74.3883 82.3672 74.4106 82.4343 74.4218 82.5014C74.433 82.5461 74.4553 82.5908 74.4888 82.6131C74.5224 82.6355 74.567 82.6467 74.6117 82.6467C75.3715 82.5349 76.8463 82.3672 78.1647 82.5684C78.2094 82.5796 78.2652 82.5572 78.2987 82.5349C78.3323 82.5014 78.3546 82.4566 78.3546 82.4119V73.3345C78.3546 72.116 77.3602 71.1211 76.1424 71.1211H70.5225C69.3047 71.1211 68.3103 72.116 68.3103 73.3345V84.2341C68.3103 84.3012 68.355 84.3571 68.4109 84.3906C68.679 84.4912 68.9248 84.6477 69.1371 84.8378Z" fill="#E6DCFF"/>
<path d="M77.9636 84.7149C78.0195 84.7261 78.0753 84.6925 78.1089 84.6478C78.1982 84.536 78.2876 84.4354 78.3658 84.346C78.6451 84.033 78.9692 83.7535 79.3267 83.5187C79.3714 83.4852 79.4049 83.4293 79.3937 83.3622C79.3937 83.3063 79.349 83.2504 79.2932 83.2281C77.8966 82.5797 75.4497 82.8144 74.2319 83.0492C74.1984 83.0604 74.176 83.0716 74.1537 83.0939C73.852 83.3734 73.7068 83.6305 73.7068 83.8541C73.7068 83.91 73.7068 84.0889 73.9414 84.2901L73.9638 84.3124L73.9749 84.3348C73.9749 84.346 73.9861 84.346 73.9861 84.3571C74.042 84.4354 74.4889 84.9608 75.9302 84.9608C76.2207 84.9608 76.5447 84.9385 76.9245 84.8937C76.9357 84.8937 76.9469 84.8937 76.9581 84.8826C77.1703 84.8043 77.6061 84.6813 77.9636 84.7149Z" fill="url(#paint1_linear_61_3525)"/>
<path d="M95.6501 35.9742C95.4267 36.3208 95.3373 36.7344 95.3931 37.148L96.1641 42.4134C96.1752 42.4804 96.2199 42.5363 96.287 42.5475C96.2981 42.5475 96.3205 42.5587 96.3317 42.5587C96.3875 42.5587 96.4322 42.5363 96.4657 42.4916C96.9015 41.9438 97.5495 40.6135 96.9797 37.8859L96.9685 37.8188L100.399 32.0504C100.432 31.9945 101.292 30.7089 100.555 29.155C100.51 29.0656 100.432 29.0097 100.332 28.9985C100.231 28.9873 100.153 29.0321 100.097 29.1215L95.6501 35.9742Z" fill="url(#paint2_linear_61_3525)"/>
<path d="M25.3287 25.03C25.4516 25.1418 25.608 25.1977 25.7756 25.1977C25.8538 25.1977 25.9321 25.1865 25.9991 25.1641L29.161 24.0798C29.228 24.0574 29.2727 24.0015 29.2727 23.9344C29.3062 23.3643 29.4738 21.8551 30.2447 20.033C30.8034 18.7026 31.8983 16.7575 33.9318 15.0247C33.9988 14.9688 34.01 14.8794 33.9653 14.8012C33.9206 14.7341 33.82 14.7117 33.753 14.7453C30.8816 16.2097 25.9432 19.4181 25.0941 24.404C25.0494 24.6387 25.1388 24.8735 25.3287 25.03Z" fill="url(#paint3_linear_61_3525)"/>
<path d="M30.5689 20.1224C29.9208 21.6539 29.7085 22.9954 29.6303 23.655C29.6192 23.7108 29.6527 23.7667 29.6974 23.8003C29.7309 23.8226 29.7644 23.8338 29.7979 23.8338C29.8203 23.8338 29.8314 23.8338 29.8538 23.8226L50.2664 16.791C50.2999 16.7798 50.3335 16.7463 50.3558 16.7128C51.4619 14.7341 52.9144 13.0013 54.6573 11.5592L64.143 3.72272C64.21 3.66683 64.2212 3.5774 64.1765 3.51032C64.1318 3.44325 64.0536 3.40971 63.9754 3.43207L37.1049 13.3143C37.0937 13.3143 37.0937 13.3143 37.0826 13.3255C33.2615 15.2707 31.4292 18.099 30.5689 20.1224Z" fill="#EDEBFF"/>
<path d="M44.1547 28.3277C43.2497 28.4842 42.4118 28.5625 41.6409 28.5625C38.5572 28.5625 37.384 27.2657 37.0265 26.7067C36.9818 26.6285 36.8813 26.6061 36.8031 26.6508L33.563 28.6072C33.3395 28.7413 33.2278 28.9761 33.2501 29.2332C33.2836 29.4903 33.4401 29.6915 33.6859 29.7698C34.7249 30.1163 36.2779 30.4853 38.0544 30.4853C39.7191 30.4853 41.5738 30.1499 43.4062 29.1549H43.4173L44.2665 28.6184C44.3335 28.5736 44.367 28.4954 44.3335 28.4171C44.3112 28.3501 44.2329 28.3053 44.1547 28.3277Z" fill="url(#paint4_linear_61_3525)"/>
<path d="M45.9313 27.5788L47.9535 26.2932C47.9982 26.2597 48.0317 26.2038 48.0317 26.1479C47.9759 23.9121 48.3111 21.7098 49.0596 19.597C49.082 19.5299 49.0596 19.4516 49.0038 19.4069C48.9479 19.3622 48.8697 19.3622 48.8138 19.3957L37.3841 26.3044C37.3506 26.3267 37.3171 26.3715 37.3059 26.4162C37.2947 26.4609 37.3059 26.5056 37.3282 26.5503C37.5405 26.8745 37.9539 27.3217 38.7472 27.6906C39.3729 27.9812 40.3114 28.2272 41.6633 28.2272C42.7694 28.2272 44.1548 28.0595 45.8866 27.6123C45.8978 27.6011 45.9201 27.59 45.9313 27.5788Z" fill="#EDEBFF"/>
<path d="M49.6407 42.5698C49.6742 42.6145 49.7189 42.6369 49.7748 42.6369C49.7859 42.6369 49.8083 42.6369 49.8195 42.6257C49.8865 42.6033 49.9312 42.5586 49.9424 42.4916L50.7133 37.2262C50.7691 36.8126 50.6798 36.399 50.4563 36.0524L46.0207 29.2109C45.976 29.1326 45.8978 29.0879 45.8084 29.0879C45.8084 29.0879 45.7973 29.0879 45.7861 29.0879C45.6855 29.0991 45.6073 29.155 45.5626 29.2444C44.8252 30.7983 45.6855 32.0839 45.7191 32.1398L49.1603 37.9082L49.1491 37.9752C48.5569 40.7029 49.205 42.022 49.6407 42.5698Z" fill="url(#paint5_linear_61_3525)"/>
<path d="M48.6797 29.0209L49.6741 34.2079C49.6741 34.2303 49.6853 34.2526 49.6964 34.2638L50.7355 35.8624C51.0036 36.276 51.1154 36.7791 51.0372 37.2598L50.702 39.5403C50.702 39.5627 50.702 39.5739 50.702 39.5962L51.8081 45.3534C52.5455 49.2214 54.8806 52.6533 58.2101 54.755L68.2432 61.1047C69.6957 62.0214 71.3716 62.4909 73.0363 62.4909C74.7011 62.4909 76.377 62.0326 77.8294 61.1047L87.8626 54.755C91.1921 52.6533 93.5272 49.2214 94.2646 45.3534L95.3819 39.518C95.3819 39.4956 95.3819 39.4844 95.3819 39.4621L95.0467 37.1815C94.9796 36.6897 95.0802 36.1978 95.3483 35.7842L96.3762 34.1967C96.3874 34.1744 96.3986 34.1632 96.3986 34.1409L97.3818 29.0209C98.6108 22.5817 96.2422 15.9973 91.1921 11.8163L80.9131 3.32024C78.3881 1.22976 75.148 0.234825 71.8408 0.559017C71.8297 0.559017 71.8073 0.559017 71.8297 0.279541L66.0198 2.41474C65.9751 2.70539 65.964 2.71657 65.9528 2.72775C65.6623 2.92897 65.3942 3.1302 65.1484 3.3426L54.8694 11.8387C49.8193 15.9973 47.4507 22.5929 48.6797 29.0209Z" fill="#EDEBFF"/>
<path d="M73.0475 64.5255C84.1867 64.5255 93.5942 62.5356 93.5942 60.1768C93.5942 60.1656 93.5942 60.1545 93.5942 60.1321V60.1209L93.583 60.0203V60.0091C93.2925 58.7571 90.2759 57.5386 85.4939 56.7449C85.4492 56.7337 85.4157 56.7449 85.3822 56.7672L78.0417 61.4177C76.5557 62.3567 74.8351 62.8486 73.0698 62.8486C71.2933 62.8486 69.5727 62.3567 68.0979 61.4177L60.7574 56.7672C60.7239 56.7449 60.6792 56.7337 60.6457 56.7449C54.6683 57.7286 52.5343 59.1707 52.5343 60.188C52.5008 62.5356 61.9082 64.5255 73.0475 64.5255Z" fill="url(#paint6_linear_61_3525)"/>
<path d="M6.59192 33.5148C6.73716 37.2262 8.82647 40.9824 12.6587 44.3696C12.6699 44.3808 12.6811 44.3808 12.6922 44.392L48.6015 64.5031C48.6238 64.5143 48.6574 64.5254 48.6797 64.5254C48.7132 64.5254 48.7579 64.5143 48.7803 64.4919C49.5065 63.9218 50.4115 63.6647 51.3388 63.7653C51.4059 63.7765 51.4729 63.7876 51.5399 63.7988C51.5846 63.81 51.6293 63.7988 51.674 63.7653C51.7075 63.7317 51.7299 63.6982 51.741 63.6535C51.931 61.6524 52.1209 60.3445 52.1544 60.0874C52.1656 60.0762 52.1656 60.0538 52.1656 60.0315C52.2662 59.2154 53.227 58.4552 55.0035 57.7845C55.0594 57.7621 55.104 57.7062 55.1152 57.6392C55.1264 57.5721 55.0929 57.5162 55.037 57.4826L7.64216 29.0767C7.59747 29.0544 7.55277 29.0432 7.50808 29.0655C7.46339 29.0767 7.42987 29.1102 7.40753 29.155C7.13938 29.7363 6.51371 31.3349 6.59192 33.5148Z" fill="#EDEBFF"/>
<path d="M10.4689 43.0953C10.5136 43.0953 10.5695 43.073 10.603 43.0394C10.6589 42.9723 10.6589 42.8829 10.603 42.8158C7.16181 39.082 6.34619 35.6836 6.26798 33.4925C6.18977 31.1896 6.84897 29.5463 7.13946 28.9426C7.17298 28.8644 7.15063 28.775 7.07242 28.7302L2.65918 26.092C2.324 25.8908 1.94413 25.8796 1.5866 26.0361C1.24024 26.2038 1.00562 26.5056 0.949751 26.8857C0.402286 30.34 0.90506 37.0363 10.3796 43.0841C10.4019 43.0841 10.4354 43.0953 10.4689 43.0953Z" fill="url(#paint7_linear_61_3525)"/>
<path d="M13.1726 53.693C12.614 51.8372 12.6699 50.3728 12.7257 49.8362C12.7369 49.7579 12.6922 49.6909 12.6252 49.6685L8.71472 48.0364C8.50243 47.9469 8.27898 47.9805 8.10021 48.1146C7.92145 48.2488 7.83207 48.4612 7.86559 48.6847C8.01083 49.7803 8.44657 51.513 9.73144 53.4806C11.2621 55.8505 13.6084 57.9745 16.7032 59.7855C16.7256 59.7967 16.7591 59.8079 16.7926 59.8079C16.8485 59.8079 16.8932 59.7855 16.9267 59.7408C16.9826 59.6737 16.9714 59.5731 16.9043 59.5172C14.6139 57.3709 13.6084 55.1574 13.1726 53.693Z" fill="url(#paint8_linear_61_3525)"/>
<path d="M19.854 61.4401C20.569 61.7643 21.3176 62.0773 22.0774 62.368L44.3 71.1323C44.3223 71.1435 44.3447 71.1435 44.3558 71.1435C44.4229 71.1435 44.4787 71.11 44.5011 71.0541C45.5402 68.9636 46.7468 66.9849 48.0987 65.1627C48.1546 65.0956 48.2104 65.0174 48.2775 64.9391C48.311 64.9056 48.3222 64.8497 48.311 64.805C48.2998 64.7603 48.2663 64.7156 48.2328 64.682L46.7133 63.8324C46.7021 63.8324 46.7021 63.8212 46.6909 63.8212L13.2732 49.9369C13.2285 49.9145 13.1615 49.9257 13.1168 49.948C13.0721 49.9816 13.0386 50.0263 13.0386 50.0822C12.9939 50.7194 13.0051 52.0273 13.4967 53.6371C14.1335 55.7276 15.7536 58.7907 19.8316 61.4289C19.8428 61.4401 19.854 61.4401 19.854 61.4401Z" fill="#EDEBFF"/>
<path d="M24.7366 70.5957C23.9545 68.8071 23.7646 67.2756 23.7087 66.6942C23.6975 66.616 23.6529 66.5601 23.5746 66.5489L20.2005 65.7887C19.9994 65.744 19.7871 65.7887 19.6307 65.9229C19.4742 66.0459 19.3737 66.2359 19.3737 66.4371C19.3625 67.9351 19.9435 70.864 23.9657 73.7147C25.4405 74.7655 27.0829 75.5704 28.8594 76.1405C28.8817 76.1405 28.8929 76.1517 28.9152 76.1517C28.9823 76.1517 29.0381 76.1182 29.0605 76.0623C29.094 75.984 29.0716 75.8946 29.0046 75.8499C26.636 74.1842 25.3846 72.0714 24.7366 70.5957Z" fill="url(#paint9_linear_61_3525)"/>
<path d="M44.2219 71.6689C44.2442 71.6241 44.2442 71.5794 44.2219 71.5347C44.1995 71.49 44.166 71.4565 44.1325 71.4453L42.7806 70.9087C42.7694 70.9087 42.7694 70.8975 42.7582 70.8975L24.2785 66.7054C24.2226 66.6942 24.1668 66.7054 24.1333 66.7389C24.0886 66.7724 24.0774 66.8283 24.0774 66.8842C24.1556 67.5661 24.3902 68.9412 25.0606 70.4839C26.3343 73.4016 28.4906 75.5368 31.4849 76.8336C31.4961 76.8336 31.4961 76.8448 31.5073 76.8448L41.5628 79.4047C41.5739 79.4047 41.5851 79.4047 41.6075 79.4047C41.641 79.4047 41.6857 79.3936 41.7192 79.36C41.7639 79.3265 41.7862 79.2706 41.775 79.2147C41.7415 78.734 41.7862 78.2421 41.9203 77.7614C42.5013 75.7045 43.2834 73.6475 44.2219 71.6689Z" fill="#EDEBFF"/>
<path d="M51.6964 83.2951C53.5735 83.2951 55.16 81.9089 55.3834 80.0532C55.8639 76.2076 55.9979 70.6516 53.8975 65.9788C53.4282 64.9279 52.4562 64.2236 51.3054 64.0895C51.1825 64.0783 51.0708 64.0671 50.9479 64.0671C49.9311 64.0671 48.9926 64.5367 48.3893 65.3639C46.4564 67.9574 43.8308 72.239 42.2331 77.8621C41.9538 78.857 42.0767 79.8855 42.5906 80.7686C43.1046 81.6406 43.9202 82.2443 44.9146 82.479C47.1268 83.0156 49.406 83.2839 51.6964 83.2951Z" fill="#EDEBFF"/>
<path d="M62.7909 93.5239C64.9026 93.5239 66.8019 92.2048 67.4164 90.2261C67.5617 89.7677 67.6846 89.3206 67.8075 88.8734C68.2097 87.3419 67.7963 85.7768 66.7014 84.5695C65.7293 83.5075 64.3551 82.9038 62.925 82.9038C62.6457 82.9038 62.3663 82.9262 62.087 82.9709C58.4782 83.5634 53.4505 84.4018 47.149 85.4862C45.3837 85.788 44.7357 87.1518 44.7134 88.225C44.691 89.4436 45.4396 90.8298 47.1714 91.1875C52.579 92.3054 58.3553 93.0544 62.2434 93.4792C62.4222 93.5127 62.6121 93.5239 62.7909 93.5239Z" fill="#EDEBFF"/>
<path d="M69.2153 119.012C69.1595 118.979 69.0924 118.967 69.0366 119.001C68.3662 119.381 67.3271 119.403 66.0646 119.079C64.4445 118.654 62.601 117.704 60.8581 116.396C58.5453 114.652 56.8247 112.584 56.2549 110.851C56.2326 110.784 56.1655 110.74 56.0985 110.74C56.0203 110.74 55.9644 110.784 55.9421 110.863C55.4058 112.629 54.6237 115.524 53.9086 119.336C52.8472 125.026 51.7523 133.981 52.5902 144.288C52.7243 145.942 53.8863 146.859 54.9365 147.15C55.2158 147.228 55.5287 147.273 55.8527 147.273C56.7353 147.273 57.7074 146.926 58.4224 145.954C60.9698 142.499 67.1372 132.986 69.2935 119.18C69.2935 119.113 69.2712 119.046 69.2153 119.012Z" fill="#EDEBFF"/>
<path d="M69.4612 117.391C65.7072 115.278 62.4894 112.294 59.875 108.526C59.8526 108.493 59.8191 108.47 59.7744 108.459C58.2549 108.068 57.1377 108.202 56.6461 108.85C56.1656 109.488 56.3332 110.617 57.1153 111.947C57.9309 113.344 59.3275 114.831 61.0593 116.128C62.7687 117.414 64.5676 118.341 66.1429 118.755C66.7015 118.9 67.2043 118.967 67.6512 118.967C68.3998 118.967 68.9696 118.755 69.2713 118.353C69.4389 118.129 69.5283 117.861 69.5394 117.525C69.5506 117.481 69.5171 117.425 69.4612 117.391Z" fill="url(#paint10_linear_61_3525)"/>
<path d="M90.3541 110.874C90.3317 110.807 90.2647 110.751 90.1976 110.751C90.1306 110.751 90.0636 110.796 90.0412 110.863C89.9071 111.265 89.706 111.701 89.4379 112.137C88.5888 113.579 87.1586 115.088 85.4269 116.396C83.0136 118.218 80.4773 119.303 78.6338 119.303C78.0752 119.303 77.6171 119.202 77.2596 119.001C77.2037 118.967 77.1367 118.979 77.0808 119.012C77.025 119.046 77.0026 119.113 77.0138 119.18C79.1701 132.986 85.3375 142.51 87.8849 145.954C88.5999 146.926 89.572 147.273 90.4546 147.273C90.7786 147.273 91.0915 147.228 91.3708 147.15C92.421 146.848 93.583 145.942 93.7171 144.288C94.5438 133.981 93.4601 125.038 92.3987 119.336C91.6724 115.535 90.8792 112.629 90.3541 110.874Z" fill="#EDEBFF"/>
<path d="M78.6339 118.979C79.0696 118.979 79.5612 118.912 80.1087 118.777C81.6728 118.375 83.4828 117.447 85.2146 116.139C86.924 114.854 88.3095 113.378 89.1474 111.981C89.9407 110.639 90.1195 109.51 89.6279 108.862C89.1139 108.18 87.8849 108.057 86.2425 108.537C86.209 108.549 86.1755 108.571 86.1531 108.604C83.6057 112.271 80.4662 115.189 76.8239 117.291C76.768 117.324 76.7457 117.369 76.7345 117.436C76.7233 117.816 76.8239 118.129 77.0026 118.375C77.3155 118.766 77.8741 118.979 78.6339 118.979Z" fill="url(#paint11_linear_61_3525)"/>
<path d="M92.4323 92.8196C92.4435 92.7637 92.4323 92.7078 92.3876 92.6631C92.3541 92.6184 92.2982 92.6072 92.2424 92.6072C89.371 93.0656 86.2985 93.468 83.1142 93.8257C82.9131 93.8481 82.7232 93.8593 82.5221 93.8593C80.9244 93.8593 79.3937 93.1326 78.4217 91.9253C78.377 91.8806 78.3211 91.8582 78.2541 91.8694C76.3324 92.2719 74.6453 92.4731 73.2487 92.4731C72.1761 92.4731 71.2599 92.3501 70.5113 92.1153C69.6957 91.8582 69.26 91.5005 69.0477 91.2546C68.9918 91.1875 68.8913 91.1763 68.8243 91.2322C68.3327 91.5787 67.7405 91.7688 67.059 91.8023C67.0143 91.8023 66.9696 91.8247 66.9361 91.8694C65.964 93.1215 64.411 93.8705 62.791 93.8705C62.5899 93.8705 62.3999 93.8593 62.1988 93.8369C59.3051 93.5239 56.5007 93.155 53.8528 92.7414C53.7969 92.7302 53.741 92.7525 53.7075 92.7973C53.674 92.842 53.6516 92.8979 53.6628 92.9538C56.6906 105.754 62.8915 114.295 72.0979 118.353C72.3995 118.487 72.7236 118.554 73.0364 118.554C73.3604 118.554 73.6844 118.487 73.9749 118.353C83.2148 114.272 89.4156 105.687 92.4323 92.8196Z" fill="#EDEBFF"/>
<path d="M98.1752 85.4862C91.8626 84.4018 86.8349 83.5634 83.2372 82.9709C82.9579 82.9262 82.6786 82.9038 82.3993 82.9038C80.9692 82.9038 79.5838 83.5075 78.6229 84.5695C78.5559 84.6366 78.5 84.7036 78.433 84.7819C78.433 84.7931 78.4218 84.7931 78.4218 84.8042L78.4106 84.8154C77.4833 85.978 77.1481 87.4537 77.5168 88.8734C77.6285 89.3094 77.7626 89.7677 77.9078 90.2261C78.5335 92.2048 80.4217 93.5239 82.5334 93.5239C82.7121 93.5239 82.9021 93.5127 83.092 93.4904C86.9801 93.0656 92.7564 92.3166 98.1641 91.1987C99.8958 90.8409 100.644 89.4547 100.622 88.2362C100.589 87.1518 99.9405 85.788 98.1752 85.4862Z" fill="#EDEBFF"/>
<path d="M96.9237 65.3751C96.3092 64.5479 95.3818 64.0784 94.3651 64.0784C94.2422 64.0784 94.1305 64.0895 94.0076 64.1007C92.8568 64.2237 91.8959 64.928 91.4155 65.99C89.315 70.6628 89.4491 76.2188 89.9295 80.0644C90.1642 81.9089 91.7507 83.3063 93.6277 83.3063C95.907 83.2951 98.1862 83.0268 100.387 82.5014C101.37 82.2667 102.197 81.6518 102.711 80.791C103.225 79.9079 103.348 78.8794 103.069 77.8845C101.482 72.2502 98.8566 67.9687 96.9237 65.3751Z" fill="#EDEBFF"/>
<path d="M126.353 65.9117C126.185 65.7775 125.984 65.7328 125.783 65.7775L122.409 66.5377C122.342 66.5489 122.286 66.6159 122.275 66.683C122.23 67.2531 122.029 68.7959 121.247 70.5845C120.61 72.0601 119.348 74.173 116.979 75.8275C116.912 75.8722 116.89 75.9616 116.923 76.0399C116.957 76.0958 117.013 76.1293 117.068 76.1293C117.091 76.1293 117.102 76.1293 117.124 76.1181C118.901 75.5592 120.543 74.7431 122.018 73.6923C126.04 70.8416 126.621 67.9015 126.61 66.4147C126.61 66.2358 126.521 66.0458 126.353 65.9117Z" fill="url(#paint12_linear_61_3525)"/>
<path d="M120.934 70.4839C121.615 68.93 121.839 67.5662 121.917 66.8843C121.928 66.8284 121.906 66.7725 121.861 66.7389C121.817 66.7054 121.761 66.6831 121.716 66.7054L103.236 70.8976C103.225 70.8976 103.225 70.8975 103.214 70.9087L101.292 71.6689C101.248 71.6913 101.214 71.7248 101.203 71.7583C101.18 71.8031 101.192 71.8478 101.203 71.8925C102.097 73.8041 102.845 75.794 103.404 77.795C103.56 78.3316 103.594 78.8794 103.538 79.416C103.527 79.4719 103.549 79.5278 103.594 79.5613C103.627 79.5837 103.661 79.606 103.706 79.606C103.717 79.606 103.728 79.606 103.75 79.606L114.498 76.8672C114.51 76.8672 114.521 76.8672 114.521 76.856C117.504 75.5369 119.66 73.4017 120.934 70.4839Z" fill="#EDEBFF"/>
<path d="M137.894 48.1146C137.716 47.9805 137.492 47.9469 137.28 48.0364L133.369 49.6685C133.302 49.702 133.258 49.7691 133.269 49.8362C133.325 50.3728 133.381 51.8372 132.822 53.693C132.375 55.1574 131.381 57.3709 129.101 59.5396C129.034 59.5955 129.034 59.6961 129.079 59.7632C129.113 59.8079 129.157 59.8302 129.213 59.8302C129.247 59.8302 129.269 59.8191 129.302 59.8079C132.397 57.9857 134.744 55.8729 136.274 53.5029C137.559 51.5242 137.995 49.8027 138.14 48.7071C138.162 48.4723 138.073 48.2599 137.894 48.1146Z" fill="url(#paint13_linear_61_3525)"/>
<path d="M132.866 49.948C132.822 49.9145 132.766 49.9145 132.71 49.9368L99.2588 63.8436C99.2477 63.8436 99.2477 63.8436 99.2365 63.8548L97.2589 64.9615C97.2142 64.9838 97.1919 65.0285 97.1807 65.0733C97.1695 65.118 97.1807 65.1739 97.2142 65.2074C98.6108 67.0855 99.851 69.1313 100.901 71.2888C100.935 71.3447 100.991 71.3782 101.046 71.3782C101.069 71.3782 101.091 71.3782 101.102 71.3671L123.906 62.3791C124.666 62.0885 125.414 61.7754 126.129 61.4401C126.141 61.4401 126.14 61.4289 126.152 61.4289C132.822 57.1026 133.034 51.6472 132.945 50.0822C132.945 50.0263 132.911 49.9816 132.866 49.948Z" fill="#EDEBFF"/>
<path d="M145.045 26.8745C144.989 26.4944 144.754 26.1926 144.408 26.0249C144.062 25.8572 143.671 25.8796 143.335 26.0808L138.922 28.7191C138.844 28.7638 138.822 28.8532 138.855 28.9315C139.146 29.5351 139.805 31.1784 139.727 33.4813C139.648 35.6724 138.844 39.0708 135.392 42.8046C135.336 42.8717 135.336 42.9612 135.392 43.0282C135.425 43.0729 135.47 43.0841 135.526 43.0841C135.559 43.0841 135.593 43.0729 135.615 43.0618C145.078 37.0251 145.581 30.3288 145.045 26.8745Z" fill="url(#paint14_linear_61_3525)"/>
<path d="M74.8574 41.7202C73.1257 40.4793 70.8017 40.4793 69.0811 41.7202C67.8521 42.6034 66.9024 43.5647 66.3103 44.202C65.9304 44.6156 65.8969 45.2416 66.2097 45.7111C69.137 50.0486 71.2375 51.4683 71.8185 51.7925C71.8631 51.8149 71.919 51.8372 71.9749 51.8372C72.0307 51.8372 72.0754 51.8261 72.1313 51.7925C72.7011 51.4571 74.8128 50.0374 77.74 45.7111C78.0529 45.2416 78.0193 44.6268 77.6395 44.202C77.0473 43.5647 76.0976 42.6034 74.8574 41.7202Z" fill="url(#paint15_linear_61_3525)"/>
<path d="M95.9517 30.4741C95.8958 30.4406 95.8288 30.4406 95.7729 30.4741C94.9461 31.0443 93.4713 31.5809 91.1697 30.966L91.1362 30.9548C91.1138 30.9437 88.6447 29.7251 85.1923 29.2556C82.0304 28.8308 77.3714 28.9538 73.1481 32.0168L73.0475 32.0839L72.9469 32.0168C68.7125 28.9538 64.0423 28.8196 60.8804 29.2556C57.4615 29.7251 54.9811 30.9325 54.9588 30.9548L54.9253 30.966C52.6237 31.592 51.1489 31.0443 50.3221 30.4741C50.2662 30.4406 50.1992 30.4406 50.1433 30.4741C50.0875 30.5077 50.054 30.5748 50.0651 30.6418C50.2774 32.2181 51.1377 33.0118 51.8863 33.7049C51.9868 33.7943 52.0762 33.8837 52.1656 33.962C52.5455 34.3197 52.8248 34.7669 52.9924 35.2588L54.5454 39.8981C54.5454 39.8981 54.5454 39.9093 54.5566 39.9093C55.9197 42.9835 58.981 44.9734 62.344 44.9734H65.5171C65.6064 44.9734 65.6735 44.9063 65.6847 44.828C65.7293 44.515 65.8634 44.2132 66.0757 43.9784C66.6679 43.3189 67.6399 42.3463 68.8912 41.452C70.7347 40.1217 73.2151 40.1217 75.0586 41.452C76.3099 42.3575 77.282 43.33 77.8741 43.9784C78.0864 44.2132 78.2205 44.5038 78.2652 44.828C78.2763 44.9175 78.3434 44.9734 78.4328 44.9734H83.751C87.114 44.9734 90.1753 42.9835 91.5384 39.9093C91.5384 39.9093 91.5384 39.8981 91.5496 39.8981L93.1026 35.2588C93.2702 34.7669 93.5495 34.3197 93.9294 33.962C94.0188 33.8726 94.1193 33.7943 94.2087 33.7049C94.9685 33.0118 95.8288 32.2293 96.0299 30.6418C96.041 30.5748 96.0075 30.5077 95.9517 30.4741Z" fill="#00447C"/>
<path opacity="0.3" d="M37.5851 46.9633C37.5851 46.9633 32.8926 53.6707 38.6465 58.9919L43.0933 61.7755L38.6577 60.1992C38.6577 60.1992 35.6969 65.8447 40.6912 69.7014C40.6912 69.7014 36.4455 72.9098 40.4454 79.1254L41.9425 79.4495C42.0431 77.918 42.4788 76.5206 43.1268 75.1009C43.8754 73.4464 44.5569 71.7472 45.3725 70.115C45.7636 69.3213 46.2217 68.5612 46.6574 67.7898C47.0485 67.0967 47.4172 66.3924 47.8976 65.7552C48.9031 64.4137 50.188 63.933 51.8192 63.9219C51.8304 63.9219 51.8416 63.9219 51.8527 63.9219L52.0762 60.5346C52.0762 60.5346 52.4114 58.7571 54.7577 57.9411L55.5062 57.5498L37.5851 46.9633Z" fill="#658EEA"/>
<path opacity="0.3" d="M108.476 46.9633C108.476 46.9633 113.169 53.6707 107.415 58.9919L102.968 61.7755L107.415 60.1992C107.415 60.1992 110.376 65.8447 105.382 69.7014C105.382 69.7014 109.627 72.9098 105.627 79.1254L103.549 79.7178C103.449 78.1863 103.147 76.5877 102.499 75.168C101.75 73.5135 101.125 71.9037 100.309 70.2715C99.9181 69.4778 99.4153 68.8295 98.9796 68.0469C98.5885 67.3538 98.0075 66.493 97.5271 65.8558C96.5215 64.5143 95.8959 63.933 94.2646 63.9219C94.2535 63.9219 94.2423 63.9219 94.2311 63.9219L94.0077 60.5346C94.0077 60.5346 93.6725 58.7571 91.3262 57.9411L90.5776 57.5498L108.476 46.9633Z" fill="#658EEA"/>
<path d="M73.1481 79.0023C74.1292 79.0023 74.9245 78.2065 74.9245 77.2249C74.9245 76.2432 74.1292 75.4474 73.1481 75.4474C72.1669 75.4474 71.3716 76.2432 71.3716 77.2249C71.3716 78.2065 72.1669 79.0023 73.1481 79.0023Z" fill="white"/>
<path d="M75.4506 75.0437C75.8432 74.6508 76.0625 74.2332 75.9404 74.111C75.8182 73.9887 75.4008 74.2082 75.0081 74.6011C74.6155 74.994 74.3962 75.4116 74.5183 75.5338C74.6405 75.6561 75.0579 75.4366 75.4506 75.0437Z" fill="white"/>
<path d="M122.554 92.8756C122.811 92.8756 123.034 93.088 123.034 93.3563V96.0281C123.034 96.2852 122.822 96.5088 122.554 96.5088C122.286 96.5088 122.073 96.2964 122.073 96.0281V93.3563C122.073 93.0992 122.286 92.8756 122.554 92.8756Z" fill="#00325C"/>
<path d="M122.554 77.1019C122.811 77.1019 123.034 77.3143 123.034 77.5826V89.9355C123.034 90.1926 122.822 90.4162 122.554 90.4162C122.286 90.4162 122.073 90.2038 122.073 89.9355V77.5714C122.073 77.3143 122.286 77.1019 122.554 77.1019Z" fill="#00325C"/>
<path d="M126.14 88.348C126.397 88.348 126.621 88.5604 126.621 88.8287V91.7353C126.621 91.9924 126.408 92.216 126.14 92.216C125.872 92.216 125.66 92.0036 125.66 91.7353V88.8287C125.66 88.5604 125.872 88.348 126.14 88.348Z" fill="#00325C"/>
<path d="M126.14 74.7432C126.397 74.7432 126.621 74.9556 126.621 75.2239V86.0452C126.621 86.3023 126.408 86.5259 126.14 86.5259C125.872 86.5259 125.66 86.3135 125.66 86.0452V75.2239C125.66 74.9556 125.872 74.7432 126.14 74.7432Z" fill="#00325C"/>
<path d="M118.979 87.4761C119.236 87.4761 119.459 87.6885 119.459 87.9568V90.8745C119.459 91.1316 119.247 91.3552 118.979 91.3552C118.711 91.3552 118.498 91.1428 118.498 90.8745V87.9568C118.509 87.6885 118.722 87.4761 118.979 87.4761Z" fill="#00325C"/>
<path d="M118.979 78.6893C119.236 78.6893 119.459 78.9017 119.459 79.17V85.0167C119.459 85.2738 119.247 85.4974 118.979 85.4974C118.711 85.4974 118.498 85.285 118.498 85.0167V79.17C118.509 78.9017 118.722 78.6893 118.979 78.6893Z" fill="#00325C"/>
<path d="M146.531 54.4978C146.274 54.4978 146.05 54.7102 146.05 54.9785V58.8912C146.05 59.1483 146.263 59.3719 146.531 59.3719C146.799 59.3719 147.011 59.1595 147.011 58.8912V54.9785C147 54.7102 146.788 54.4978 146.531 54.4978Z" fill="#00325C"/>
<path d="M146.531 38.713C146.274 38.713 146.05 38.9254 146.05 39.1937V51.5466C146.05 51.8037 146.263 52.0273 146.531 52.0273C146.799 52.0273 147.011 51.8148 147.011 51.5466V39.1825C147 38.9254 146.788 38.713 146.531 38.713Z" fill="#00325C"/>
<path d="M142.944 55.9399C142.687 55.9399 142.464 56.1523 142.464 56.4206V62.0884C142.464 62.3455 142.676 62.5691 142.944 62.5691C143.201 62.5691 143.425 62.3567 143.425 62.0884V56.4206C143.414 56.1523 143.201 55.9399 142.944 55.9399Z" fill="#00325C"/>
<path d="M142.944 52.9104C142.687 52.9104 142.464 53.1228 142.464 53.3911V53.7377C142.464 53.9948 142.676 54.2183 142.944 54.2183C143.201 54.2183 143.425 54.0059 143.425 53.7377V53.3911C143.414 53.1228 143.201 52.9104 142.944 52.9104Z" fill="#00325C"/>
<path d="M142.944 45.2528C142.687 45.2528 142.464 45.4652 142.464 45.7335V50.6076C142.464 50.8647 142.676 51.0883 142.944 51.0883C143.201 51.0883 143.425 50.8759 143.425 50.6076V45.7223C143.414 45.4652 143.201 45.2528 142.944 45.2528Z" fill="#00325C"/>
<path d="M24.446 92.8756C24.189 92.8756 23.9656 93.088 23.9656 93.3563V96.0281C23.9656 96.2852 24.1779 96.5088 24.446 96.5088C24.7142 96.5088 24.9264 96.2964 24.9264 96.0281V93.3563C24.9264 93.0992 24.7142 92.8756 24.446 92.8756Z" fill="#00325C"/>
<path d="M24.446 77.1019C24.189 77.1019 23.9656 77.3143 23.9656 77.5826V89.9355C23.9656 90.1926 24.1779 90.4162 24.446 90.4162C24.7142 90.4162 24.9264 90.2038 24.9264 89.9355V77.5714C24.9264 77.3143 24.7142 77.1019 24.446 77.1019Z" fill="#00325C"/>
<path d="M20.8708 88.348C20.6138 88.348 20.3904 88.5604 20.3904 88.8287V91.7353C20.3904 91.9924 20.6027 92.216 20.8708 92.216C21.139 92.216 21.3512 92.0036 21.3512 91.7353V88.8287C21.3401 88.5604 21.1278 88.348 20.8708 88.348Z" fill="#00325C"/>
<path d="M20.8708 74.7432C20.6138 74.7432 20.3904 74.9556 20.3904 75.2239V86.0452C20.3904 86.3023 20.6027 86.5259 20.8708 86.5259C21.139 86.5259 21.3512 86.3135 21.3512 86.0452V75.2239C21.3401 74.9556 21.1278 74.7432 20.8708 74.7432Z" fill="#00325C"/>
<path d="M28.0214 87.4761C27.7645 87.4761 27.541 87.6885 27.541 87.9568V90.8745C27.541 91.1316 27.7533 91.3552 28.0214 91.3552C28.2784 91.3552 28.5019 91.1428 28.5019 90.8745V87.9568C28.4907 87.6885 28.2784 87.4761 28.0214 87.4761Z" fill="#00325C"/>
<path d="M28.0214 78.6893C27.7645 78.6893 27.541 78.9017 27.541 79.17V85.0167C27.541 85.2738 27.7533 85.4974 28.0214 85.4974C28.2784 85.4974 28.5019 85.285 28.5019 85.0167V79.17C28.4907 78.9017 28.2784 78.6893 28.0214 78.6893Z" fill="#00325C"/>
<path d="M0.480429 54.4978C0.737402 54.4978 0.960857 54.7102 0.960857 54.9785V58.8912C0.960857 59.1483 0.748575 59.3719 0.480429 59.3719C0.212282 59.3719 0 59.1483 0 58.8912V54.9785C0 54.7102 0.212282 54.4978 0.480429 54.4978Z" fill="#00325C"/>
<path d="M0.480429 38.713C0.737402 38.713 0.960857 38.9254 0.960857 39.1937V51.5466C0.960857 51.8037 0.748575 52.0273 0.480429 52.0273C0.212282 52.0273 0 51.8037 0 51.5466V39.1937C0 38.9254 0.212282 38.713 0.480429 38.713Z" fill="#00325C"/>
<path d="M4.05562 55.9399C4.3126 55.9399 4.53605 56.1523 4.53605 56.4206V62.0884C4.53605 62.3455 4.32377 62.5691 4.05562 62.5691C3.79865 62.5691 3.5752 62.3567 3.5752 62.0884V56.4206C3.58637 56.1523 3.79865 55.9399 4.05562 55.9399Z" fill="#00325C"/>
<path d="M4.05562 52.9104C4.3126 52.9104 4.53605 53.1228 4.53605 53.3911V53.7377C4.53605 53.9948 4.32377 54.2183 4.05562 54.2183C3.79865 54.2183 3.5752 54.0059 3.5752 53.7377V53.3911C3.58637 53.1228 3.79865 52.9104 4.05562 52.9104Z" fill="#00325C"/>
<path d="M4.05562 45.2528C4.3126 45.2528 4.53605 45.4652 4.53605 45.7335V50.6076C4.53605 50.8647 4.32377 51.0883 4.05562 51.0883C3.79865 51.0883 3.5752 50.8759 3.5752 50.6076V45.7223C3.58637 45.4652 3.79865 45.2528 4.05562 45.2528Z" fill="#00325C"/>
<path opacity="0.1" d="M75.3619 166.783C93.7871 166.783 108.724 164.145 108.724 160.891C108.724 157.638 93.7871 155 75.3619 155C56.9366 155 42 157.638 42 160.891C42 164.145 56.9366 166.783 75.3619 166.783Z" fill="#00325C"/>
<path opacity="0.3" d="M49.9868 84.8824C49.9868 84.8824 47.797 85.9445 47.8305 87.9455C47.8305 87.9455 47.9199 89.2311 49.9868 89.8124C49.9868 89.8124 64.2991 93.2108 67.2599 90.9415C67.2599 90.9415 64.9695 94.1163 62.2098 93.7139L48.8919 91.724C48.8919 91.724 44.5569 91.4445 44.434 88.225C44.434 88.2138 43.8195 84.6477 49.9868 84.8824Z" fill="#658EEA"/>
<path opacity="0.3" d="M53.8081 65.7664C53.8081 65.7664 50.6685 64.7044 49.8864 66.8731C49.8864 66.8731 45.786 77.1466 46.9033 79.2483C46.9033 79.2483 48.4563 82.725 55.1041 81.7636C55.1041 81.7636 53.4059 84.2118 48.8809 83.3063L44.0543 82.3225C44.0543 82.3225 40.9817 80.8245 42.3448 77.1019L43.8085 72.8874L45.7302 68.93L47.8642 65.5204C47.8753 65.5093 50.6462 61.5742 53.8081 65.7664Z" fill="#658EEA"/>
<path opacity="0.3" d="M96.2534 64.5255C96.2534 64.5255 93.3485 65.1738 93.2814 67.0743C93.2814 67.0743 91.7284 78.3316 94.2088 80.6456C94.2088 80.6456 97.0802 82.6914 103.035 80.2544L102.376 81.6182L100.6 82.5684L94.7004 83.3845L92.4211 83.2951L90.1978 81.8865C90.1978 81.8865 89.3933 79.1141 89.3933 79.0358C89.3933 78.9464 89.3486 73.5693 89.3486 73.5693L90.3654 68.2704L91.4715 65.3974C91.4715 65.3974 93.0133 62.871 96.2534 64.5255Z" fill="#658EEA"/>
<path opacity="0.3" d="M69.5169 30.0941C69.5169 30.0941 67.7292 26.282 59.4949 26.6398C59.4949 26.6398 55.8079 23.1854 58.8022 18.4567C58.8022 18.4567 69.3493 -0.1005 76.5445 0.872077C76.5445 0.872077 70.3436 -1.24076 65.8298 2.62719L55.9531 10.609C55.9531 10.609 49.3947 15.6284 48.5009 22.347C48.5009 22.347 47.3724 27.1316 49.4841 34.0738C49.4841 34.0738 50.6461 36.3208 50.7131 36.4102C50.7801 36.4997 50.3779 39.7528 50.3779 39.7528L52.4225 48.07L53.7633 50.4958L55.7967 53.0447L60.9362 56.6331L69.7962 62.1667C69.7962 62.1667 73.4497 63.3741 76.2317 62.1667C76.2317 62.1667 71.7402 61.8649 68.3214 58.6677C68.3214 58.6677 57.5173 49.0649 58.2994 44.2691L56.0648 42.3687C56.0648 42.3687 54.3889 40.2111 54.3889 40.1217C54.3889 40.0322 52.4002 34.5322 52.4002 34.5322L50.5343 32.6317L49.7187 30.8766L50.0427 30.1276L51.3611 30.8431L53.3722 31.0108L54.5565 30.8654L56.4559 30.0829C56.4671 30.0941 63.6958 27.2099 69.5169 30.0941Z" fill="#658EEA"/>
<path opacity="0.3" d="M84.6112 82.9821C84.6112 82.9821 81.8627 83.8876 81.3488 87.1407C81.1812 88.1803 81.4717 89.2423 82.1979 89.9913C82.7454 90.5503 83.6057 91.0422 84.9799 91.1875C84.9799 91.1875 97.8174 91.3664 100.599 89.2088L100.186 90.2708L99.0352 91.1875L97.4264 91.657L84.3766 93.5239C84.3766 93.5239 82.2426 93.7922 82.1532 93.7587C82.0638 93.7251 79.5276 92.8308 79.5276 92.8308L78.0305 91.1875L77.0249 88.2139C77.0249 88.2139 77.159 82.8927 82.5442 82.8032L84.6112 82.9821Z" fill="#658EEA"/>
<path opacity="0.3" d="M54.8583 67.4991L55.6739 73.4688V79.7514C55.0482 83.7311 51.8864 83.2951 51.8864 83.2951L52.0428 84.223C53.1042 83.9994 54.1991 83.91 55.2605 83.7087C56.7465 83.4293 58.2437 83.3398 59.752 83.3287C59.7073 77.169 60.3218 71.736 60.7575 68.6953C60.9586 67.2979 62.1876 66.2918 63.5954 66.3589C70.7571 66.7054 77.7625 64.5926 77.7625 64.5926C55.0594 65.2522 52.0651 60.5458 52.0651 60.5458L51.6741 63.7653L53.5288 65.0509L54.8583 67.4991Z" fill="#658EEA"/>
<path opacity="0.3" d="M75.9636 114.865C74.3547 115.155 72.69 114.82 71.3269 113.914C64.7797 109.611 61.7519 101.64 60.5117 93.4345C59.238 93.4345 57.9643 93.2332 56.7018 93.032C55.9197 92.9091 55.1488 92.7637 54.3667 92.719C54.065 92.7078 53.7633 92.7078 53.4617 92.6967C53.5846 95.6144 56.8135 102.847 56.8135 102.847L59.7966 108.448L65.4612 114.451L69.4834 117.369L73.0028 118.789C79.8517 116.43 84.4326 110.471 84.4326 110.471C81.3154 113.389 78.12 114.473 75.9636 114.865Z" fill="#658EEA"/>
<path opacity="0.3" d="M65.3718 118.811C65.3718 118.811 62.087 118.475 59.6737 117.57C58.6905 117.201 57.6067 117.771 57.3498 118.788C56.266 123.182 54.0538 133.556 54.8918 142.678C54.8918 142.678 54.7242 147.373 59.1598 145.104L57.9754 146.691L55.8414 147.44L54.0538 146.948L52.4449 145.216L52.2885 142.51L52.0874 135.244L52.4338 129.71L52.9477 124.378L54.1544 116.653L56.1096 110.058C56.1208 110.046 57.5062 115.211 65.3718 118.811Z" fill="#658EEA"/>
<path opacity="0.3" d="M87.2369 114.708C87.2369 114.708 85.4939 119.034 82.1197 120.264C81.36 120.544 80.9466 121.348 81.1477 122.131C82.2985 126.502 85.7844 138.821 89.706 143.483C89.706 143.483 92.0188 146.423 93.7953 143.338L93.6724 145.149L92.745 146.591L91.3037 147.273H89.6278L87.7508 146.166L85.6727 142.969L82.9689 137.927L81.6058 135.501L78.969 128.805L77.1032 121.93L76.8462 118.733C76.8909 118.721 79.2372 121.158 87.2369 114.708Z" fill="#658EEA"/>
<path d="M80.8126 2.99609C80.8126 2.99609 77.5837 3.68919 79.8853 6.10387C79.8853 6.10387 91.639 14.7005 93.8289 19.3622C93.8289 19.3622 95.6054 22.5371 94.9909 26.1255C94.9909 26.1255 94.8344 28.9538 97.717 28.0371C97.717 28.0371 99.136 21.4192 93.9965 14.3205L80.8126 2.99609Z" fill="white"/>
<path opacity="0.3" d="M71.9414 71.1322C71.9414 71.1322 69.4052 71.2664 69.584 73.6699V84.793L69.2488 84.8825L68.1092 84.3906V73.3233C68.1092 73.3233 68.0533 70.5845 71.9414 71.1322Z" fill="#658EEA"/>
<path opacity="0.3" d="M74.8352 71.1322C74.8352 71.1322 77.3714 71.2664 77.1927 73.6699V84.793L77.5278 84.8825L78.6675 84.3906V73.3233C78.6675 73.3233 78.7233 70.5845 74.8352 71.1322Z" fill="#658EEA"/>
<path d="M48.7692 72.2278C48.825 71.926 48.7356 71.6129 48.5122 71.3782L46.6687 69.4442C46.2665 69.8243 46.2553 70.4503 46.6352 70.8528L48.2329 72.5408L48.7692 72.2278Z" fill="url(#paint16_linear_61_3525)"/>
<path d="M52.2216 70.9757L49.6519 71.6912C49.339 71.7806 49.1044 72.0042 48.9927 72.2948L49.2943 72.8314L51.5289 72.2054C52.054 72.0489 52.3668 71.5011 52.2216 70.9757Z" fill="url(#paint17_linear_61_3525)"/>
<path d="M48.6575 73.055L49.0709 72.8202L48.4229 72.6414L48.6575 73.055Z" fill="url(#paint18_linear_61_3525)"/>
<path d="M95.8847 71.3111C95.7953 71.0205 95.5718 70.7745 95.2702 70.6628L92.7563 69.7684C92.5775 70.2827 92.8457 70.8528 93.3596 71.0428L95.5495 71.8254L95.8847 71.3111Z" fill="url(#paint19_linear_61_3525)"/>
<path d="M98.3985 68.6394L96.4321 70.4392C96.1863 70.6628 96.0858 70.9758 96.1193 71.2665L96.6333 71.6019L98.3539 70.0368C98.7449 69.6679 98.7672 69.0418 98.3985 68.6394Z" fill="url(#paint20_linear_61_3525)"/>
<path d="M96.1639 72.0938L96.4209 71.7025L95.7617 71.8367L96.1639 72.0938Z" fill="url(#paint21_linear_61_3525)"/>
<path d="M51.6293 88.0686C51.4506 88.1021 51.3053 88.2251 51.2271 88.3928L50.5791 89.8237C50.8696 89.9579 51.2159 89.8237 51.35 89.5331L51.9087 88.2922L51.6293 88.0686Z" fill="url(#paint22_linear_61_3525)"/>
<path d="M50.1768 86.4588L51.1376 87.6996C51.2493 87.8562 51.4281 87.9344 51.6069 87.9232L51.8303 87.6438L50.9924 86.5594C50.8024 86.3134 50.4337 86.2687 50.1768 86.4588Z" fill="url(#paint23_linear_61_3525)"/>
<path d="M52.0985 87.9456L51.875 87.7667L51.9197 88.158L52.0985 87.9456Z" fill="url(#paint24_linear_61_3525)"/>
<path d="M56.0091 121.393C56.0426 121.136 55.9644 120.868 55.7633 120.678L54.1432 119.079C53.8192 119.415 53.8192 119.951 54.1544 120.275L55.5622 121.673L56.0091 121.393Z" fill="url(#paint25_linear_61_3525)"/>
<path d="M58.9252 120.219L56.7577 120.901C56.4895 120.98 56.2996 121.181 56.2102 121.427L56.4784 121.874L58.3665 121.281C58.8135 121.147 59.0593 120.667 58.9252 120.219Z" fill="url(#paint26_linear_61_3525)"/>
<path d="M55.942 122.098L56.2884 121.885L55.7297 121.751L55.942 122.098Z" fill="url(#paint27_linear_61_3525)"/>
<path d="M54.7129 128.391C54.7465 128.134 54.6683 127.866 54.4671 127.676L52.8471 126.077C52.5231 126.413 52.5231 126.949 52.8583 127.273L54.266 128.671L54.7129 128.391Z" fill="url(#paint28_linear_61_3525)"/>
<path d="M57.6178 127.229L55.4503 127.911C55.1822 127.989 54.9922 128.19 54.9028 128.436L55.171 128.883L57.0592 128.291C57.5173 128.157 57.7631 127.676 57.6178 127.229Z" fill="url(#paint29_linear_61_3525)"/>
<path d="M54.6459 129.096L54.9922 128.883L54.4336 128.749L54.6459 129.096Z" fill="url(#paint30_linear_61_3525)"/>
<path d="M54.2885 134.965C54.322 134.741 54.2438 134.517 54.0762 134.35L52.6908 132.986C52.4115 133.265 52.4115 133.724 52.702 134.003L53.9086 135.188L54.2885 134.965Z" fill="url(#paint31_linear_61_3525)"/>
<path d="M56.7688 133.97L54.9141 134.551C54.6906 134.618 54.523 134.797 54.4448 134.998L54.6795 135.378L56.2883 134.875C56.6682 134.763 56.8805 134.35 56.7688 133.97Z" fill="url(#paint32_linear_61_3525)"/>
<path d="M54.2327 135.568L54.5232 135.389L54.0427 135.278L54.2327 135.568Z" fill="url(#paint33_linear_61_3525)"/>
<path d="M90.287 121.393C90.2535 121.136 90.3317 120.868 90.5328 120.678L92.1529 119.079C92.4769 119.415 92.4769 119.951 92.1417 120.275L90.734 121.673L90.287 121.393Z" fill="url(#paint34_linear_61_3525)"/>
<path d="M87.3821 120.219L89.5496 120.901C89.8178 120.98 90.0077 121.181 90.0971 121.427L89.8289 121.874L87.9296 121.293C87.4827 121.147 87.2369 120.667 87.3821 120.219Z" fill="url(#paint35_linear_61_3525)"/>
<path d="M90.3542 122.098L90.0078 121.885L90.5665 121.751L90.3542 122.098Z" fill="url(#paint36_linear_61_3525)"/>
<path d="M91.5829 128.391C91.5494 128.134 91.6276 127.866 91.8287 127.676L93.4488 126.077C93.7728 126.413 93.7728 126.949 93.4376 127.273L92.0299 128.671L91.5829 128.391Z" fill="url(#paint37_linear_61_3525)"/>
<path d="M88.6781 127.229L90.8456 127.911C91.1138 127.989 91.3037 128.19 91.3931 128.436L91.125 128.883L89.2368 128.291C88.7899 128.157 88.5329 127.676 88.6781 127.229Z" fill="url(#paint38_linear_61_3525)"/>
<path d="M91.6613 129.096L91.3149 128.883L91.8624 128.749L91.6613 129.096Z" fill="url(#paint39_linear_61_3525)"/>
<path d="M92.0076 134.965C91.9741 134.741 92.0523 134.517 92.2199 134.35L93.6053 132.986C93.8846 133.265 93.8846 133.724 93.5942 134.003L92.3875 135.188L92.0076 134.965Z" fill="url(#paint40_linear_61_3525)"/>
<path d="M89.5385 133.97L91.3932 134.551C91.6166 134.618 91.7842 134.797 91.8624 134.998L91.6278 135.378L90.0189 134.875C89.6279 134.763 89.4156 134.35 89.5385 133.97Z" fill="url(#paint41_linear_61_3525)"/>
<path d="M92.0746 135.568L91.7729 135.389L92.2534 135.278L92.0746 135.568Z" fill="url(#paint42_linear_61_3525)"/>
<path d="M57.0257 87.9009C56.8246 87.9456 56.6459 88.0797 56.5565 88.281L55.8191 89.9243C56.1543 90.0808 56.5565 89.9243 56.7017 89.5889L57.3498 88.158L57.0257 87.9009Z" fill="url(#paint43_linear_61_3525)"/>
<path d="M55.3611 86.0563L56.456 87.4873C56.5901 87.6661 56.7912 87.7556 56.9923 87.7444L57.2493 87.4202L56.2884 86.1793C56.0761 85.8887 55.6516 85.8328 55.3611 86.0563Z" fill="url(#paint44_linear_61_3525)"/>
<path d="M57.5622 87.7555L57.3164 87.5543L57.3611 88.0015L57.5622 87.7555Z" fill="url(#paint45_linear_61_3525)"/>
<path d="M62.0199 87.7778C61.7965 87.8225 61.5954 87.9791 61.4836 88.2138L60.6345 90.0807C61.0144 90.2596 61.4725 90.0807 61.6401 89.7006L62.3775 88.0685L62.0199 87.7778Z" fill="url(#paint46_linear_61_3525)"/>
<path d="M60.1318 85.6762L61.3832 87.2971C61.5396 87.4983 61.7631 87.5989 61.9977 87.5989L62.2882 87.23L61.2044 85.8215C60.9474 85.4861 60.467 85.419 60.1318 85.6762Z" fill="url(#paint47_linear_61_3525)"/>
<path d="M62.6345 87.6102L62.3552 87.3866L62.4111 87.9008L62.6345 87.6102Z" fill="url(#paint48_linear_61_3525)"/>
<path d="M94.1862 88.0013C94.365 88.0461 94.5102 88.1578 94.5885 88.3367L95.2253 89.7676C94.9348 89.9018 94.5885 89.7676 94.4544 89.477L93.8958 88.2249L94.1862 88.0013Z" fill="url(#paint49_linear_61_3525)"/>
<path d="M95.6499 86.4028L94.6891 87.6437C94.5662 87.789 94.3986 87.8673 94.2198 87.8673L93.9963 87.5878L94.8343 86.5146C95.0242 86.2575 95.3929 86.2128 95.6499 86.4028Z" fill="url(#paint50_linear_61_3525)"/>
<path d="M93.717 87.8784L93.9405 87.6996L93.8958 88.0909L93.717 87.8784Z" fill="url(#paint51_linear_61_3525)"/>
<path d="M88.8011 87.8002C89.0022 87.8449 89.1809 87.979 89.2703 88.1803L89.9965 89.8236C89.6614 89.9689 89.2591 89.8236 89.1139 89.4882L88.4771 88.0573L88.8011 87.8002Z" fill="url(#paint52_linear_61_3525)"/>
<path d="M90.466 85.9668L89.3599 87.3866C89.2258 87.5543 89.0247 87.6437 88.8124 87.6437L88.5554 87.3195L89.5163 86.0786C89.7509 85.788 90.1755 85.7433 90.466 85.9668Z" fill="url(#paint53_linear_61_3525)"/>
<path d="M88.2537 87.6548L88.5106 87.4536L88.4548 87.9008L88.2537 87.6548Z" fill="url(#paint54_linear_61_3525)"/>
<path d="M83.7956 87.6438C84.0191 87.6997 84.2202 87.845 84.3208 88.0798L85.1475 89.9579C84.7677 90.1255 84.3096 89.9579 84.142 89.5666L83.4158 87.9345L83.7956 87.6438Z" fill="url(#paint55_linear_61_3525)"/>
<path d="M85.6951 85.5645L84.4326 87.1743C84.2762 87.3755 84.0415 87.4761 83.8181 87.4649L83.5276 87.096L84.6225 85.6874C84.8907 85.3633 85.3599 85.3074 85.6951 85.5645Z" fill="url(#paint56_linear_61_3525)"/>
<path d="M83.1812 87.4761L83.4716 87.2526L83.4046 87.7668L83.1812 87.4761Z" fill="url(#paint57_linear_61_3525)"/>
<path d="M71.5503 52.2286C71.6732 52.2956 71.8185 52.3404 71.9525 52.3404C72.0866 52.3404 72.2318 52.3068 72.3547 52.2286C73.1257 51.7814 75.215 50.2946 78.1199 45.9907C78.2316 45.8342 78.3098 45.6553 78.3545 45.4764H83.7286C87.2927 45.4764 90.5328 43.3636 91.9853 40.0993L93.5607 35.4153C93.6947 35.0017 93.9405 34.6216 94.2534 34.3197C94.3427 34.2415 94.4321 34.1521 94.5327 34.0626C95.3595 33.3025 96.4879 32.274 96.5661 30.1388C96.5773 29.9599 96.4656 29.7922 96.3092 29.714C96.1416 29.6357 95.9516 29.6693 95.8175 29.7922C95.3371 30.2394 93.9405 31.1896 91.3149 30.4853C91.0021 30.34 88.6223 29.2221 85.2705 28.7526C82.0639 28.3166 77.349 28.4396 73.0363 31.4691C68.7236 28.4396 64.0087 28.3166 60.8021 28.7526C57.4503 29.2109 55.0593 30.3288 54.7577 30.4853C52.1321 31.1896 50.7355 30.2394 50.255 29.7922C50.121 29.6693 49.931 29.6357 49.7634 29.714C49.5958 29.7922 49.4953 29.9599 49.5065 30.1388C49.5847 32.274 50.7131 33.3136 51.5399 34.0626C51.6405 34.1521 51.7298 34.2303 51.8192 34.3197C52.1321 34.6216 52.3779 35.0017 52.5119 35.4153L54.0761 40.0658L54.0873 40.0993C55.5286 43.3636 58.7687 45.4764 62.344 45.4764H65.5729C65.6176 45.6553 65.6958 45.823 65.8075 45.9907C68.6901 50.2946 70.7906 51.7926 71.5503 52.2286ZM77.5724 45.6218C74.6675 49.9257 72.5894 51.3231 72.0196 51.6584C71.9749 51.6808 71.9302 51.6808 71.8855 51.6584C71.3157 51.3342 69.2376 49.9257 66.3326 45.6218C66.0645 45.2193 66.098 44.6827 66.422 44.325C67.003 43.6878 67.9415 42.7376 69.1593 41.8656C69.9973 41.2619 70.9693 40.9713 71.9525 40.9713C72.9357 40.9713 73.9078 41.2731 74.7457 41.8656C75.9636 42.7376 76.9132 43.6878 77.483 44.325C77.8182 44.6827 77.8517 45.2081 77.5724 45.6218ZM54.6906 39.8422L53.1376 35.2029C52.9588 34.6886 52.6683 34.208 52.2661 33.839C52.1767 33.7496 52.0762 33.6602 51.9756 33.5707C51.2382 32.8888 50.4003 32.1286 50.1992 30.6083C50.9813 31.1449 52.5231 31.7709 54.9476 31.1225L54.9811 31.1114L55.0146 31.1002C55.037 31.089 57.4726 29.8928 60.8915 29.4233C64.031 28.9985 68.6454 29.1215 72.8352 32.151L73.0363 32.2963L73.2374 32.151C77.416 29.1215 82.0304 28.9873 85.1587 29.4233C88.5776 29.8928 91.0244 31.089 91.0468 31.1002L91.0803 31.1114L91.1138 31.1225C93.5383 31.7821 95.069 31.1449 95.8622 30.6083C95.6611 32.1286 94.8343 32.8888 94.0858 33.5707C93.9852 33.6602 93.8958 33.7496 93.7953 33.839C93.4042 34.2191 93.1026 34.6886 92.9238 35.2029L91.3708 39.8422C90.0301 42.8605 87.0358 44.8057 83.7398 44.8057H78.4216C78.3769 44.4591 78.2316 44.1349 77.997 43.8666C77.3937 43.2071 76.4216 42.2233 75.1479 41.3066C73.2486 39.9428 70.69 39.9428 68.7795 41.3066C67.5169 42.2121 66.5337 43.1959 65.9304 43.8666C65.6846 44.1349 65.5394 44.4703 65.5058 44.8057H62.3328C59.0257 44.8057 56.0314 42.8605 54.6906 39.8422Z" fill="#00325C"/>
<path d="M145.525 26.7962C145.436 26.2596 145.101 25.8012 144.598 25.5665C144.106 25.3317 143.525 25.3653 143.056 25.6447L90.2424 57.315C88.9464 56.9013 87.5275 56.5883 86.2873 56.3647L88.1308 55.2021C91.572 53.0222 93.9965 49.4785 94.7562 45.4652L95.516 41.519L95.6612 42.4916C95.6947 42.7598 95.8959 42.9723 96.1528 43.0393C96.2087 43.0505 96.2757 43.0617 96.3316 43.0617C96.5327 43.0617 96.7115 42.9723 96.8455 42.8157C97.4377 42.0779 98.0298 40.6247 97.4936 37.9193L100.812 32.341C100.912 32.1845 101.84 30.72 101.002 28.9537C100.879 28.6966 100.633 28.5289 100.354 28.5178C100.074 28.4954 99.8175 28.6295 99.6611 28.8643L97.2254 32.6205L97.8958 29.1214C99.1583 22.5034 96.7226 15.7289 91.5273 11.4362L81.2484 2.94011C78.5446 0.715484 75.148 -0.245913 71.8521 0.0559208L71.6845 0.0782789C69.584 0.30186 67.5282 1.0285 65.7182 2.26937L35.7417 13.2919C35.6412 13.3254 33.2502 14.1974 30.6581 15.9749C27.2057 18.356 25.1052 21.2402 24.5913 24.3144C24.5243 24.7281 24.6695 25.1417 24.9935 25.4212C25.217 25.6112 25.4851 25.7006 25.7644 25.7006C25.8985 25.7006 26.0326 25.6783 26.1555 25.6336L49.7524 17.5064C49.5848 17.8418 49.4283 18.1771 49.2943 18.5237L33.3172 28.1824C32.9262 28.4171 32.7139 28.8419 32.7698 29.3003C32.8256 29.7474 33.1161 30.1164 33.5518 30.2617C34.6244 30.6194 36.2333 31.0107 38.0768 31.0107C39.8086 31.0107 41.7638 30.6641 43.6744 29.6133L47.9088 26.9303C47.9647 27.657 48.0541 28.3948 48.1882 29.1326L48.8697 32.7099L46.434 28.9537C46.2776 28.719 46.0207 28.596 45.7413 28.6072C45.462 28.6295 45.2162 28.7972 45.0933 29.0432C44.2554 30.8095 45.1827 32.2739 45.2832 32.4304L48.6016 38.0088C48.0653 40.7141 48.6462 42.1562 49.2496 42.9052C49.3837 43.0617 49.5624 43.1511 49.7635 43.1511C49.8194 43.1511 49.8864 43.1399 49.9423 43.1288C50.1993 43.0617 50.3892 42.8493 50.4339 42.581L50.5791 41.6084L51.3165 45.4764C52.0875 49.4785 54.5008 53.0334 57.942 55.2133L59.7855 56.3759C58.523 56.5995 57.0705 56.9237 55.7633 57.3485L2.8938 25.6559C2.42454 25.3764 1.85473 25.3429 1.35196 25.5777C0.860358 25.8124 0.514002 26.2708 0.42462 26.8074C0.156474 28.4954 0.111783 31.1448 1.419 34.1744C2.97201 37.7628 6.02217 40.9936 10.4801 43.7548H10.4913L41.6074 61.1829L8.87123 47.578C8.49135 47.4215 8.07796 47.4774 7.75395 47.7233C7.42994 47.9693 7.27352 48.3605 7.31821 48.763C7.51932 50.2722 8.17852 52.5974 10.2566 55.1574C12.7705 58.254 16.681 60.8475 21.8763 62.8486L38.6019 69.4442L20.2898 65.2968C19.9434 65.2185 19.5747 65.2968 19.2954 65.5204C19.0161 65.7439 18.8485 66.0681 18.8485 66.4259C18.8373 68.0133 19.4407 71.1322 23.6528 74.1171C25.4628 75.4026 27.5186 76.3529 29.7643 76.923L41.708 79.9637C41.8085 80.3326 41.9538 80.6903 42.1437 81.0257C42.5348 81.6853 43.0822 82.2107 43.7302 82.5684C43.6297 82.8926 43.5738 83.228 43.5738 83.5745C43.5738 84.6589 44.0766 85.6203 44.8587 86.2463C44.4118 86.8388 44.1883 87.5431 44.1771 88.2138C44.1548 89.6447 45.0263 91.2657 47.0374 91.6793C49.0373 92.0929 51.0931 92.4619 53.0818 92.7749C54.4561 98.6774 56.4895 103.697 59.171 107.811C57.7856 107.576 56.7577 107.833 56.2214 108.537C56.0873 108.716 55.9979 108.917 55.9309 109.141C55.9197 109.175 54.5455 112.998 53.3835 119.202C52.3109 124.926 51.216 133.936 52.0539 144.299C52.188 145.898 53.2159 147.161 54.7689 147.608C55.1265 147.709 55.484 147.765 55.8415 147.765C56.9923 147.765 58.0761 147.228 58.8023 146.244C61.4837 142.622 67.9193 132.628 69.9304 118.151C69.9639 118.062 69.9862 117.972 69.9974 117.872C70.6119 118.196 71.2376 118.498 71.8856 118.788C72.2543 118.945 72.6453 119.034 73.0364 119.034C73.4274 119.034 73.8185 118.956 74.1872 118.788C74.8911 118.475 75.5838 118.14 76.2541 117.782C76.2765 117.917 76.2988 118.04 76.3435 118.162C78.3546 132.639 84.7901 142.622 87.4716 146.244C88.1978 147.228 89.2704 147.765 90.4324 147.765C90.7787 147.765 91.1474 147.72 91.505 147.608C93.0468 147.172 94.0859 145.898 94.2199 144.299C95.0579 133.936 93.9518 124.926 92.8904 119.202C91.7284 112.987 90.3542 109.175 90.343 109.141C90.2759 108.917 90.1866 108.716 90.0525 108.537C89.4827 107.777 88.3654 107.542 86.8683 107.844C89.5832 103.697 91.6279 98.6215 93.0021 92.6407C94.7451 92.3501 96.5215 92.037 98.2645 91.6681C100.276 91.2545 101.147 89.6224 101.125 88.2026C101.114 87.6102 100.935 86.9841 100.588 86.4364C101.348 85.8103 101.829 84.8601 101.829 83.8093C101.829 83.3621 101.739 82.9373 101.583 82.5461C102.231 82.1883 102.778 81.6629 103.169 81.0033C103.337 80.7239 103.46 80.4332 103.56 80.1314L116.23 76.9006C118.476 76.3305 120.532 75.3915 122.342 74.0947C126.543 71.1099 127.157 67.9909 127.146 66.4035C127.146 66.0458 126.978 65.7216 126.699 65.498C126.42 65.2744 126.051 65.1962 125.705 65.2744L107.393 69.4219L124.118 62.8262C129.314 60.8252 133.224 58.2316 135.738 55.135C137.805 52.5862 138.475 50.2498 138.676 48.7406C138.732 48.3382 138.565 47.9469 138.241 47.701C137.917 47.455 137.503 47.3992 137.123 47.5557L104.387 61.1605L135.503 43.7324L135.514 43.7212C139.984 40.96 143.023 37.7293 144.576 34.1408C145.827 31.1336 145.782 28.4842 145.525 26.7962ZM100.22 29.222C100.242 29.1885 100.276 29.1773 100.309 29.1773C100.331 29.1773 100.365 29.1885 100.387 29.2332C101.08 30.6977 100.276 31.905 100.242 31.9609L96.7673 37.7964L96.7897 37.9193C97.3483 40.5799 96.7226 41.8543 96.3092 42.3798L95.5383 37.1144C95.4825 36.7455 95.5607 36.3654 95.7729 36.0636L100.22 29.222ZM25.932 25.0075C25.7533 25.0634 25.5633 25.0299 25.4181 24.9069C25.2728 24.784 25.2058 24.6051 25.2393 24.4262C26.0661 19.5298 30.9151 16.3661 33.8088 14.8905C31.8201 16.5785 30.7028 18.4678 30.0771 19.9546C29.295 21.7992 29.1274 23.3419 29.0939 23.912L25.932 25.0075ZM29.7866 23.6772C29.8537 23.0065 30.066 21.6985 30.7028 20.1894C31.5519 18.1771 33.3619 15.3936 37.1383 13.4819L64.02 3.59968L54.5343 11.4362C52.7467 12.9118 51.283 14.6781 50.1881 16.6344L29.7866 23.6772ZM43.328 29.0208C39.5963 31.0666 35.7194 30.2729 33.7418 29.6245C33.563 29.5686 33.4401 29.4121 33.4178 29.222C33.3954 29.032 33.4848 28.8531 33.6524 28.7525L36.8925 26.7962C37.3059 27.4446 38.5237 28.7302 41.6409 28.7302C42.3783 28.7302 43.2163 28.6631 44.1771 28.4954L43.328 29.0208ZM47.853 26.159L45.8307 27.4446C42.032 28.4395 39.9203 28.0482 38.803 27.534C38.021 27.1763 37.6299 26.7291 37.4511 26.4608L48.8809 19.5522C48.1435 21.6426 47.7859 23.8896 47.853 26.159ZM50.5233 37.2039L49.7524 42.4692C49.3278 41.9438 48.7133 40.6694 49.2719 37.9976L49.2943 37.8746L45.8307 32.0615L45.8195 32.0392C45.786 31.9833 44.9816 30.7759 45.6743 29.3115C45.6966 29.2668 45.7413 29.2556 45.7525 29.2556C45.7525 29.2556 45.7525 29.2556 45.7637 29.2556C45.786 29.2556 45.8195 29.2668 45.8419 29.3003L50.2775 36.1419C50.5009 36.4549 50.5791 36.835 50.5233 37.2039ZM58.2883 54.632C55.0036 52.5527 52.6908 49.1654 51.9534 45.3422L50.8473 39.585L51.1825 37.3045C51.2607 36.7791 51.1378 36.2313 50.8473 35.7841L49.8082 34.1967L48.8138 29.0096C47.596 22.6376 49.9423 16.109 54.9477 11.9728L65.2266 3.47671C65.4836 3.26431 65.7517 3.06308 66.0199 2.87304C66.0199 2.87304 68.9136 0.782558 71.8297 0.737842C74.9804 0.436008 78.2317 1.34151 80.8015 3.47671L91.0804 11.9728C96.0858 16.109 98.4321 22.6376 97.2142 29.0096L96.231 34.1296L95.2031 35.7171C94.9126 36.1642 94.7897 36.7008 94.868 37.2374L95.2031 39.5179L94.0859 45.3534C93.3485 49.1766 91.0469 52.5639 87.7509 54.6432L77.7178 60.9929C74.8575 62.8039 71.1594 62.8039 68.2991 60.9929L58.2883 54.632ZM60.6123 56.9013L67.9528 61.5518C69.4946 62.5244 71.2599 63.0163 73.014 63.0163C74.7793 63.0163 76.5446 62.5244 78.0753 61.5518L85.4158 56.9013C90.991 57.818 93.1585 59.126 93.3708 60.0315C93.3708 60.0538 93.382 60.0874 93.382 60.1321C93.382 60.1433 93.382 60.1544 93.382 60.1656C93.382 62.1443 85.0136 64.3466 73.0029 64.3466C60.9922 64.3466 52.6238 62.1443 52.6238 60.1656C52.6461 59.2601 54.7354 57.8627 60.6123 56.9013ZM89.4268 80.1202C89.6838 82.2219 91.4938 83.7981 93.6166 83.7981H93.6278C93.6725 83.7981 93.7172 83.7981 93.7619 83.7981C93.7507 83.9434 93.7283 84.0776 93.7172 84.2229C89.505 83.5074 86.0191 82.9261 83.3153 82.479C82.131 82.2889 80.9355 82.4678 79.8965 82.9932C79.5948 82.792 79.2373 82.6467 78.8574 82.5461V73.3233C78.8574 71.8253 77.6396 70.6068 76.1424 70.6068H70.5225C69.0254 70.6068 67.8075 71.8253 67.8075 73.3233V84.0329C67.4165 83.977 67.0813 83.9993 66.8802 84.0329C65.6065 82.7584 63.7965 82.1771 61.9977 82.4678C59.4503 82.8814 56.2102 83.4292 52.3221 84.0888C52.3109 83.977 52.2997 83.8652 52.2886 83.7422C54.1432 83.4739 55.6404 82.0095 55.875 80.109C56.3666 76.2075 56.5007 70.5398 54.3555 65.7663C53.931 64.8273 53.1712 64.123 52.2327 63.7876C52.3333 62.7591 52.4226 61.9095 52.5009 61.2835C53.5623 62.4238 56.1097 63.1951 58.3219 63.6758C62.2547 64.5366 67.4835 65.0061 73.0364 65.0061C78.5892 65.0061 83.8181 64.5366 87.7509 63.6758C89.9631 63.1951 92.4993 62.4238 93.5607 61.2947C93.6278 61.8872 93.7172 62.6697 93.8065 63.5976C92.544 63.7764 91.4714 64.5813 90.9463 65.7551C88.8011 70.5509 88.9352 76.2187 89.4268 80.1202ZM77.0027 89.0075C77.1144 89.4547 77.2485 89.913 77.3938 90.3826C77.5055 90.7515 77.6731 91.098 77.863 91.4334C71.5728 92.6966 69.8186 91.3887 69.4164 90.9191C69.9862 90.2819 70.3438 89.3876 70.4443 88.2585C70.5113 87.476 70.3884 86.6935 70.098 85.9892C69.9751 85.6985 69.8298 85.4526 69.6734 85.229C70.2655 84.5918 72.0755 82.7696 73.7738 82.479C73.8408 82.4678 73.8743 82.5013 73.8855 82.5349C73.9079 82.5796 73.8967 82.6243 73.8632 82.6578C73.4051 83.0603 73.1816 83.4627 73.1816 83.854C73.1816 84.0552 73.2487 84.3459 73.5503 84.6365C73.6956 84.8377 74.2654 85.4638 75.8966 85.4638C76.2206 85.4638 76.5893 85.4414 77.0027 85.3855H77.0362L77.0697 85.3743C77.215 85.3296 77.3602 85.2849 77.5055 85.2626C76.8463 86.3916 76.6675 87.7108 77.0027 89.0075ZM67.4053 84.6701C67.9975 84.6812 68.9136 84.9384 69.4723 86.2463C69.7292 86.8388 69.8298 87.5095 69.7739 88.1915C69.6622 89.4435 69.1706 90.9191 67.5282 91.2322C67.6735 90.9639 67.7964 90.6844 67.8857 90.3826C68.031 89.9242 68.1651 89.4547 68.2768 89.0075C68.679 87.4872 68.355 85.9333 67.4053 84.6701ZM68.4667 84.2229V73.3233C68.4667 72.1943 69.3829 71.2776 70.5113 71.2776H76.1312C77.2597 71.2776 78.1759 72.1943 78.1759 73.3233V82.4007C76.8351 82.1995 75.3492 82.3672 74.5671 82.479C74.5559 82.4007 74.5335 82.3225 74.5 82.2442C74.3436 81.9312 74.0196 81.7523 73.6732 81.8082C71.7962 82.1212 69.9192 83.977 69.2376 84.7036C68.9807 84.4912 68.7237 84.3347 68.4667 84.2229ZM76.8798 84.7148C74.6453 85.0166 74.0978 84.2453 74.0978 84.2453L74.0755 84.2005L74.0308 84.167C73.852 84.0105 73.852 83.8987 73.852 83.854C73.852 83.6863 73.9972 83.4627 74.2542 83.2168C75.3156 83.0156 77.8183 82.7361 79.2149 83.3845C78.8574 83.6304 78.5222 83.9099 78.2317 84.2341C78.1423 84.3347 78.053 84.4465 77.9636 84.5471C77.5837 84.5136 77.1368 84.6253 76.8798 84.7148ZM1.09499 26.8968C1.15085 26.5726 1.34079 26.3155 1.64245 26.1702C1.94412 26.036 2.26813 26.0472 2.55862 26.2149L6.97186 28.8531C6.65902 29.5015 6.011 31.156 6.08921 33.4812C6.16742 35.8065 7.03889 39.2049 10.4689 42.9164C1.07264 36.9468 0.558693 30.3399 1.09499 26.8968ZM12.7593 44.2467C8.96061 40.8929 6.88248 37.1815 6.7484 33.5036C6.67019 31.3796 7.26235 29.8369 7.54167 29.2109L54.9253 57.6168C53.3388 58.2205 52.1098 59.003 51.9869 59.9979H51.9757C51.9757 60.0091 51.7635 61.3618 51.5512 63.6199C51.4841 63.6088 51.4059 63.5976 51.3389 63.5864C50.3557 63.4746 49.406 63.7541 48.6574 64.3466L12.7593 44.2467ZM7.99975 48.6736C7.97741 48.5059 8.04444 48.3494 8.17851 48.2488C8.31259 48.1481 8.48018 48.1258 8.62543 48.1929L12.5359 49.825C12.48 50.4063 12.4242 51.8708 12.9828 53.7488C13.4744 55.3698 14.5135 57.5385 16.748 59.6626C9.70918 55.5151 8.2679 50.7752 7.99975 48.6736ZM22.1333 62.2225C21.3512 61.9207 20.6138 61.6077 19.9211 61.2947C15.8877 58.6788 14.29 55.6605 13.6532 53.5923C13.1727 52.0161 13.1616 50.7305 13.2063 50.1045L46.6575 64.0112L48.1546 64.8384C48.0876 64.9167 48.0317 64.9949 47.9647 65.0732C46.881 66.5377 45.5737 68.5275 44.3447 70.9869L22.1333 62.2225ZM24.0438 73.5805C20.0887 70.7745 19.5189 67.9015 19.53 66.437C19.53 66.2805 19.5971 66.1464 19.72 66.0458C19.8429 65.9452 19.9993 65.9116 20.1557 65.9452L23.5299 66.7054C23.5858 67.2978 23.7869 68.8517 24.569 70.6627C25.2728 72.2837 26.5577 74.3406 28.8928 75.9728C27.1387 75.425 25.5075 74.6201 24.0438 73.5805ZM41.7415 77.7391C41.5962 78.2421 41.5515 78.7452 41.5851 79.2482L31.5296 76.6882C28.58 75.4138 26.446 73.301 25.1946 70.428C24.5243 68.8964 24.3008 67.5438 24.2226 66.873L42.7023 71.0652L44.0542 71.6018C43.1939 73.4128 42.3783 75.4585 41.7415 77.7391ZM42.7247 80.6903C42.2331 79.8519 42.1102 78.8681 42.3783 77.9179C43.9649 72.3172 46.5793 68.058 48.501 65.4757C49.082 64.6931 49.9758 64.246 50.9255 64.246C51.0372 64.246 51.1489 64.2571 51.2607 64.2683C52.3444 64.3913 53.2606 65.0508 53.7187 66.057C55.7968 70.6963 55.6627 76.2187 55.1935 80.0419C54.97 81.8082 53.4617 83.1273 51.6741 83.1273H51.6629C49.3948 83.1162 47.1379 82.8479 44.9369 82.3225C43.9984 82.0989 43.2163 81.5176 42.7247 80.6903ZM51.6517 84.2117C51.216 84.29 50.7691 84.357 50.311 84.4353C50.3669 84.2229 50.4004 83.9993 50.4115 83.7646C50.8026 83.7869 51.2048 83.7981 51.5959 83.7981C51.6294 83.9322 51.6405 84.0664 51.6517 84.2117ZM47.1826 91.0309C45.5514 90.6956 44.8363 89.3764 44.8587 88.225C44.881 87.2077 45.4844 85.9333 47.1491 85.6426C53.4394 84.5695 58.4671 83.7198 62.0871 83.1273C62.3552 83.0826 62.6345 83.0603 62.9027 83.0603C64.2881 83.0603 65.6065 83.6304 66.5562 84.6701C67.6176 85.8327 68.0086 87.3419 67.6288 88.8175C67.517 89.2535 67.383 89.7006 67.2489 90.159C66.6009 92.2271 64.4892 93.5574 62.2435 93.3115C58.3554 92.8978 52.5902 92.16 47.1826 91.0309ZM58.266 145.853C57.3387 147.116 55.9532 147.262 54.9589 146.982C53.9645 146.703 52.8584 145.831 52.7355 144.266C51.9087 133.981 52.9925 125.049 54.0539 119.359C54.7801 115.491 55.5845 112.562 56.0873 110.907C56.6571 112.606 58.333 114.708 60.7575 116.53C62.5116 117.849 64.3775 118.811 66.0199 119.236C66.6232 119.392 67.1707 119.47 67.6511 119.47C68.2321 119.47 68.7237 119.359 69.1036 119.146C66.9584 132.896 60.8469 142.365 58.266 145.853ZM69.1259 118.263C68.6902 118.844 67.6064 118.967 66.1763 118.598C64.6233 118.196 62.8357 117.268 61.1486 116.005C57.4504 113.221 55.8974 110.114 56.7688 108.962C57.2158 108.37 58.2772 108.258 59.7185 108.627C62.3552 112.428 65.573 115.401 69.3605 117.536C69.3494 117.827 69.2712 118.073 69.1259 118.263ZM90.1754 110.918C90.6782 112.573 91.4826 115.502 92.1977 119.359C93.2591 125.038 94.3428 133.981 93.5161 144.266C93.3932 145.842 92.287 146.703 91.2927 146.982C90.3095 147.262 88.924 147.116 87.9855 145.853C85.4046 142.365 79.2931 132.896 77.148 119.146C77.539 119.37 78.0306 119.47 78.6116 119.47C80.4216 119.47 82.9913 118.42 85.5052 116.53C87.2593 115.211 88.7006 113.68 89.5609 112.226C89.829 111.768 90.0302 111.332 90.1754 110.918ZM89.4827 108.951C89.9184 109.532 89.7397 110.605 88.9911 111.88C88.1755 113.266 86.7901 114.719 85.103 115.994C81.4048 118.777 77.9971 119.415 77.1256 118.252C76.958 118.04 76.8798 117.749 76.891 117.413C80.5668 115.301 83.7064 112.383 86.2761 108.683C87.8179 108.247 89.0134 108.336 89.4827 108.951ZM73.9079 118.185C73.3492 118.431 72.7124 118.431 72.1537 118.185C62.9921 114.149 56.8247 105.642 53.8081 92.8978C56.9364 93.3785 59.8749 93.7363 62.1653 93.9934C62.3664 94.0157 62.5675 94.0269 62.7798 94.0269C64.4892 94.0269 66.0646 93.2444 67.059 91.9588C67.7852 91.9253 68.4109 91.724 68.9136 91.3551C69.1483 91.6234 69.6063 92.0035 70.4555 92.2718C71.2152 92.5178 72.1426 92.6407 73.2375 92.6407C74.6453 92.6407 76.3323 92.4395 78.2764 92.0259C79.2708 93.2667 80.8238 94.0269 82.4997 94.0269C82.7008 94.0269 82.9019 94.0157 83.1142 93.9934C85.5946 93.7251 88.8347 93.3226 92.2535 92.7749C89.2481 105.597 83.0807 114.138 73.9079 118.185ZM98.0969 91.0309C92.7004 92.1488 86.9241 92.8978 83.0472 93.3226C80.8015 93.5686 78.6898 92.2495 78.0418 90.1702C77.8965 89.723 77.7736 89.2646 77.6619 88.8287C77.3044 87.4536 77.6172 86.0451 78.5222 84.916L78.5557 84.8936C78.5557 84.8825 78.5446 84.8825 78.5446 84.8825C78.6004 84.8154 78.6674 84.7371 78.7233 84.6701C79.673 83.6304 80.9914 83.0603 82.3768 83.0603C82.645 83.0603 82.9131 83.0826 83.1924 83.1273C86.8124 83.7198 91.8401 84.5695 98.1304 85.6426C99.7951 85.9221 100.41 87.2077 100.421 88.225C100.443 89.3876 99.7393 90.6956 98.0969 91.0309ZM95.0132 84.4465C94.8009 84.4129 94.5775 84.3682 94.3652 84.3347C94.3875 84.1558 94.4099 83.9658 94.421 83.7869C94.5998 83.7869 94.7786 83.7757 94.9573 83.7646C94.9573 83.7869 94.9573 83.8093 94.9573 83.8316C94.9573 84.044 94.9797 84.2453 95.0132 84.4465ZM102.555 80.6903C102.074 81.5176 101.281 82.0989 100.343 82.3225C98.1527 82.8479 95.8847 83.1162 93.6166 83.1273H93.6054C91.8178 83.1273 90.2983 81.7971 90.086 80.0419C89.6056 76.2187 89.4715 70.6963 91.5608 66.057C92.0077 65.0508 92.9239 64.3913 94.0188 64.2683C94.1306 64.2571 94.2423 64.246 94.354 64.246C95.3149 64.246 96.1975 64.6931 96.7785 65.4757C98.7002 68.058 101.315 72.3172 102.901 77.9179C103.169 78.8681 103.046 79.8519 102.555 80.6903ZM125.805 65.9452C125.962 65.9116 126.118 65.9452 126.241 66.0458C126.364 66.1464 126.431 66.2805 126.431 66.437C126.442 67.9015 125.872 70.7745 121.917 73.5805C120.454 74.6201 118.834 75.425 117.068 75.984C119.403 74.3518 120.688 72.2837 121.392 70.6739C122.174 68.8629 122.375 67.3202 122.431 66.7165L125.805 65.9452ZM121.738 66.873C121.66 67.5438 121.437 68.8964 120.766 70.428C119.515 73.301 117.381 75.4138 114.431 76.6882L103.683 79.4159C103.75 78.857 103.706 78.2868 103.549 77.7279C102.935 75.548 102.164 73.5693 101.337 71.803L103.259 71.0428L121.738 66.873ZM133.414 49.825L137.324 48.1929C137.481 48.1258 137.648 48.1481 137.771 48.2488C137.905 48.3494 137.972 48.5059 137.95 48.6736C137.671 50.7864 136.241 55.5151 129.191 59.6626C131.414 57.5385 132.464 55.3698 132.956 53.7488C133.526 51.8708 133.47 50.4063 133.414 49.825ZM132.766 50.0933C132.855 51.6248 132.654 57.0019 126.051 61.2947C125.347 61.6077 124.61 61.9207 123.828 62.2225L101.046 71.2105C99.7951 68.6617 98.4544 66.6047 97.3371 65.1068L99.3147 64L132.766 50.0933ZM133.191 44.2467L96.8791 64.5813C96.2199 63.9553 95.3819 63.6088 94.4769 63.5752C94.3093 61.7754 94.1417 60.5345 94.0747 60.0762C94.0077 59.0254 92.7228 58.2093 91.0692 57.5944L138.419 29.2109C138.71 29.8369 139.291 31.3908 139.213 33.5036C139.067 37.1815 136.989 40.8929 133.191 44.2467ZM135.503 42.9275C138.922 39.2161 139.794 35.8177 139.883 33.4924C139.961 31.1672 139.302 29.5127 139 28.8643L143.414 26.2261C143.693 26.0584 144.028 26.036 144.33 26.1813C144.62 26.3155 144.821 26.5838 144.877 26.908C145.402 30.3399 144.877 36.9468 135.503 42.9275Z" fill="#00325C"/>
<path d="M66.2434 39.2162C66.1875 38.7355 66.0646 38.3107 65.8747 37.9306C65.83 37.83 65.7741 37.7405 65.7182 37.6511C65.6959 37.6064 65.6624 37.5617 65.6289 37.5281L65.5395 37.4052L65.4389 37.2934C65.4054 37.2598 65.3831 37.2151 65.3384 37.1816C65.2713 37.1145 65.2043 37.0363 65.1261 36.9692C64.8244 36.7121 64.4892 36.4997 64.1317 36.3879C63.9529 36.332 63.763 36.2873 63.5731 36.2537C63.3831 36.2314 63.1932 36.2202 63.0033 36.2425C62.6234 36.2761 62.2435 36.3879 61.9083 36.5779C61.7407 36.6785 61.5731 36.7903 61.4279 36.9245L61.3162 37.0251L61.2156 37.1369C61.1821 37.1704 61.1486 37.2151 61.1151 37.2487L61.0704 37.3046C61.048 37.3381 61.0257 37.3716 60.9922 37.394C60.7911 37.6399 60.5117 37.8076 60.1989 37.8859C60.0425 37.9194 59.8861 37.9418 59.7408 37.9194C59.5844 37.9082 59.4391 37.8635 59.2939 37.7964C59.0146 37.6735 58.8135 37.4387 58.7017 37.1816C58.6459 37.0474 58.6235 36.9133 58.6235 36.7791C58.6235 36.645 58.6571 36.5108 58.7017 36.3991C58.7129 36.3767 58.7464 36.3543 58.7688 36.3655C58.7911 36.3767 58.8023 36.3879 58.8023 36.4102C58.8135 36.522 58.8246 36.6338 58.8693 36.7344C58.914 36.835 58.9587 36.9133 59.0258 36.9915C59.1598 37.1369 59.3274 37.2263 59.495 37.2598C59.5844 37.271 59.6626 37.271 59.7408 37.2598C59.8302 37.2487 59.9084 37.2151 59.9754 37.1816C60.1207 37.1145 60.2324 36.9915 60.3106 36.8574C60.3218 36.8462 60.333 36.8239 60.333 36.8015L60.3888 36.7121C60.4223 36.6562 60.4559 36.5891 60.5006 36.5444L60.6235 36.3767L60.7575 36.2202C60.9363 36.019 61.1486 35.8289 61.372 35.6724C61.5955 35.5159 61.8413 35.3929 62.0983 35.2811C62.3552 35.1805 62.6346 35.1135 62.9027 35.0799C63.4613 35.0128 64.02 35.0911 64.5451 35.2811C65.0702 35.4824 65.5283 35.8177 65.8747 36.2425C66.5897 37.081 66.7796 38.2883 66.3663 39.1938C66.3551 39.2162 66.3216 39.2385 66.2992 39.2162C66.2545 39.2497 66.2434 39.2273 66.2434 39.2162Z" fill="#2BCAFF"/>
<path d="M79.5053 39.1714C79.5724 38.6907 79.6953 38.2659 79.8852 37.8858C79.9299 37.7852 79.9858 37.7069 80.0416 37.6175C80.064 37.5728 80.0975 37.5281 80.131 37.4945L80.2204 37.3716L80.321 37.2598C80.3545 37.2262 80.388 37.1815 80.4215 37.148C80.4886 37.0809 80.5556 37.0027 80.6338 36.9468C80.9355 36.6897 81.2706 36.4884 81.6393 36.3766C81.8181 36.3207 82.008 36.276 82.198 36.2537C82.3879 36.2313 82.5779 36.2313 82.7678 36.2537C83.1477 36.2872 83.5275 36.4102 83.8627 36.6002C84.0303 36.7008 84.1867 36.8126 84.3432 36.9468L84.4549 37.0474L84.5554 37.1592C84.589 37.1927 84.6225 37.2374 84.656 37.271L84.7007 37.3269C84.723 37.3604 84.7454 37.3939 84.7789 37.4163C84.98 37.6622 85.2593 37.8411 85.561 37.9194C85.7174 37.9641 85.8738 37.9752 86.0191 37.9641C86.1755 37.9529 86.3207 37.9194 86.466 37.8523C86.7453 37.7293 86.9576 37.5057 87.0693 37.2486C87.1252 37.1145 87.1475 36.9803 87.1587 36.8462C87.1587 36.712 87.1363 36.5779 87.0917 36.4661C87.0805 36.4437 87.047 36.4214 87.0246 36.4325C87.0023 36.4437 86.9911 36.4549 86.9911 36.4773C86.9799 36.589 86.9688 36.7008 86.9241 36.8014C86.8794 36.9021 86.8347 36.9803 86.7676 37.0586C86.6336 37.2039 86.466 37.2933 86.2984 37.3157C86.209 37.3269 86.1308 37.3269 86.0526 37.3157C85.9632 37.3045 85.885 37.271 85.818 37.2374C85.6727 37.1592 85.561 37.0474 85.4828 36.9132C85.4716 36.9021 85.4604 36.8797 85.4604 36.8573L85.4157 36.7679C85.3822 36.712 85.3487 36.6449 85.3152 36.6002L85.2035 36.4325L85.0694 36.276C84.8906 36.0636 84.6895 35.8848 84.4661 35.7171C84.2426 35.5606 83.9968 35.4264 83.7398 35.3258C83.4829 35.2252 83.2035 35.1581 82.9354 35.1134C82.3767 35.0352 81.8181 35.1134 81.293 35.2923C80.7679 35.4823 80.2986 35.8177 79.9523 36.2425C79.2372 37.0697 79.0249 38.2771 79.4271 39.1938C79.4383 39.2161 79.4718 39.2385 79.4942 39.2161C79.4942 39.2049 79.5053 39.1938 79.5053 39.1714Z" fill="#2BCAFF"/>
</g>
<defs>
<linearGradient id="paint0_linear_61_3525" x1="69.2664" y1="87.2208" x2="78.0513" y2="87.2208" gradientUnits="userSpaceOnUse">
<stop stop-color="#1A40E2"/>
<stop offset="1" stop-color="#1A9AE2"/>
</linearGradient>
<linearGradient id="paint1_linear_61_3525" x1="73.7051" y1="83.8827" x2="79.3969" y2="83.8827" gradientUnits="userSpaceOnUse">
<stop stop-color="#1A40E2"/>
<stop offset="1" stop-color="#1A9AE2"/>
</linearGradient>
<linearGradient id="paint2_linear_61_3525" x1="95.377" y1="35.7897" x2="100.848" y2="35.7897" gradientUnits="userSpaceOnUse">
<stop stop-color="#1A40E2"/>
<stop offset="1" stop-color="#1A9AE2"/>
</linearGradient>
<linearGradient id="paint3_linear_61_3525" x1="31.3366" y1="22.7691" x2="28.401" y2="17.8832" gradientUnits="userSpaceOnUse">
<stop stop-color="#1A40E2"/>
<stop offset="1" stop-color="#1A9AE2"/>
</linearGradient>
<linearGradient id="paint4_linear_61_3525" x1="40.1524" y1="31.1377" x2="37.2872" y2="26.369" gradientUnits="userSpaceOnUse">
<stop stop-color="#1A40E2"/>
<stop offset="1" stop-color="#1A9AE2"/>
</linearGradient>
<linearGradient id="paint5_linear_61_3525" x1="45.2542" y1="35.8644" x2="50.7258" y2="35.8644" gradientUnits="userSpaceOnUse">
<stop stop-color="#1A40E2"/>
<stop offset="1" stop-color="#1A9AE2"/>
</linearGradient>
<linearGradient id="paint6_linear_61_3525" x1="78.8006" y1="69.7766" x2="67.2807" y2="50.6033" gradientUnits="userSpaceOnUse">
<stop stop-color="#1A40E2"/>
<stop offset="1" stop-color="#1A9AE2"/>
</linearGradient>
<linearGradient id="paint7_linear_61_3525" x1="11.2118" y1="42.6758" x2="1.30568" y2="26.1886" gradientUnits="userSpaceOnUse">
<stop stop-color="#1A40E2"/>
<stop offset="1" stop-color="#1A9AE2"/>
</linearGradient>
<linearGradient id="paint8_linear_61_3525" x1="16.3131" y1="60.1319" x2="8.82597" y2="47.6706" gradientUnits="userSpaceOnUse">
<stop stop-color="#1A40E2"/>
<stop offset="1" stop-color="#1A9AE2"/>
</linearGradient>
<linearGradient id="paint9_linear_61_3525" x1="27.3307" y1="77.1228" x2="20.3375" y2="65.4836" gradientUnits="userSpaceOnUse">
<stop stop-color="#1A40E2"/>
<stop offset="1" stop-color="#1A9AE2"/>
</linearGradient>
<linearGradient id="paint10_linear_61_3525" x1="66.5629" y1="120.1" x2="58.9229" y2="107.384" gradientUnits="userSpaceOnUse">
<stop stop-color="#1A40E2"/>
<stop offset="1" stop-color="#1A9AE2"/>
</linearGradient>
<linearGradient id="paint11_linear_61_3525" x1="84.9892" y1="116.397" x2="81.8465" y2="111.166" gradientUnits="userSpaceOnUse">
<stop stop-color="#1A40E2"/>
<stop offset="1" stop-color="#1A9AE2"/>
</linearGradient>
<linearGradient id="paint12_linear_61_3525" x1="122.993" y1="73.1907" x2="119.9" y2="68.044" gradientUnits="userSpaceOnUse">
<stop stop-color="#1A40E2"/>
<stop offset="1" stop-color="#1A9AE2"/>
</linearGradient>
<linearGradient id="paint13_linear_61_3525" x1="134.988" y1="56.3905" x2="131.588" y2="50.7325" gradientUnits="userSpaceOnUse">
<stop stop-color="#1A40E2"/>
<stop offset="1" stop-color="#1A9AE2"/>
</linearGradient>
<linearGradient id="paint14_linear_61_3525" x1="142.612" y1="38.8652" x2="137.157" y2="29.7872" gradientUnits="userSpaceOnUse">
<stop stop-color="#1A40E2"/>
<stop offset="1" stop-color="#1A9AE2"/>
</linearGradient>
<linearGradient id="paint15_linear_61_3525" x1="66.002" y1="46.3151" x2="77.9425" y2="46.3151" gradientUnits="userSpaceOnUse">
<stop stop-color="#1A40E2"/>
<stop offset="1" stop-color="#1A9AE2"/>
</linearGradient>
<linearGradient id="paint16_linear_61_3525" x1="46.9615" y1="72.8582" x2="47.8662" y2="70.1347" gradientUnits="userSpaceOnUse">
<stop stop-color="#1A40E2"/>
<stop offset="1" stop-color="#1A9AE2"/>
</linearGradient>
<linearGradient id="paint17_linear_61_3525" x1="49.9344" y1="73.8456" x2="50.8391" y2="71.1221" gradientUnits="userSpaceOnUse">
<stop stop-color="#1A40E2"/>
<stop offset="1" stop-color="#1A9AE2"/>
</linearGradient>
<linearGradient id="paint18_linear_61_3525" x1="48.5102" y1="73.3726" x2="49.4149" y2="70.649" gradientUnits="userSpaceOnUse">
<stop stop-color="#1A40E2"/>
<stop offset="1" stop-color="#1A9AE2"/>
</linearGradient>
<linearGradient id="paint19_linear_61_3525" x1="94.5904" y1="72.6976" x2="94.1637" y2="69.8598" gradientUnits="userSpaceOnUse">
<stop stop-color="#1A40E2"/>
<stop offset="1" stop-color="#1A9AE2"/>
</linearGradient>
<linearGradient id="paint20_linear_61_3525" x1="97.6877" y1="72.232" x2="97.261" y2="69.3941" gradientUnits="userSpaceOnUse">
<stop stop-color="#1A40E2"/>
<stop offset="1" stop-color="#1A9AE2"/>
</linearGradient>
<linearGradient id="paint21_linear_61_3525" x1="96.2038" y1="72.4551" x2="95.7771" y2="69.6173" gradientUnits="userSpaceOnUse">
<stop stop-color="#1A40E2"/>
<stop offset="1" stop-color="#1A9AE2"/>
</linearGradient>
<linearGradient id="paint22_linear_61_3525" x1="52.3887" y1="88.8953" x2="50.7086" y2="89.0055" gradientUnits="userSpaceOnUse">
<stop stop-color="#1A40E2"/>
<stop offset="1" stop-color="#1A9AE2"/>
</linearGradient>
<linearGradient id="paint23_linear_61_3525" x1="52.2683" y1="87.0595" x2="50.5881" y2="87.1697" gradientUnits="userSpaceOnUse">
<stop stop-color="#1A40E2"/>
<stop offset="1" stop-color="#1A9AE2"/>
</linearGradient>
<linearGradient id="paint24_linear_61_3525" x1="52.3259" y1="87.939" x2="50.6458" y2="88.0491" gradientUnits="userSpaceOnUse">
<stop stop-color="#1A40E2"/>
<stop offset="1" stop-color="#1A9AE2"/>
</linearGradient>
<linearGradient id="paint25_linear_61_3525" x1="54.503" y1="122.006" x2="55.1968" y2="119.659" gradientUnits="userSpaceOnUse">
<stop stop-color="#1A40E2"/>
<stop offset="1" stop-color="#1A9AE2"/>
</linearGradient>
<linearGradient id="paint26_linear_61_3525" x1="57.0649" y1="122.763" x2="57.7587" y2="120.416" gradientUnits="userSpaceOnUse">
<stop stop-color="#1A40E2"/>
<stop offset="1" stop-color="#1A9AE2"/>
</linearGradient>
<linearGradient id="paint27_linear_61_3525" x1="55.8375" y1="122.4" x2="56.5314" y2="120.053" gradientUnits="userSpaceOnUse">
<stop stop-color="#1A40E2"/>
<stop offset="1" stop-color="#1A9AE2"/>
</linearGradient>
<linearGradient id="paint28_linear_61_3525" x1="53.2039" y1="129.01" x2="53.8978" y2="126.662" gradientUnits="userSpaceOnUse">
<stop stop-color="#1A40E2"/>
<stop offset="1" stop-color="#1A9AE2"/>
</linearGradient>
<linearGradient id="paint29_linear_61_3525" x1="55.7658" y1="129.767" x2="56.4596" y2="127.42" gradientUnits="userSpaceOnUse">
<stop stop-color="#1A40E2"/>
<stop offset="1" stop-color="#1A9AE2"/>
</linearGradient>
<linearGradient id="paint30_linear_61_3525" x1="54.5385" y1="129.404" x2="55.2323" y2="127.057" gradientUnits="userSpaceOnUse">
<stop stop-color="#1A40E2"/>
<stop offset="1" stop-color="#1A9AE2"/>
</linearGradient>
<linearGradient id="paint31_linear_61_3525" x1="53.0009" y1="135.493" x2="53.5919" y2="133.494" gradientUnits="userSpaceOnUse">
<stop stop-color="#1A40E2"/>
<stop offset="1" stop-color="#1A9AE2"/>
</linearGradient>
<linearGradient id="paint32_linear_61_3525" x1="55.1831" y1="136.138" x2="55.774" y2="134.139" gradientUnits="userSpaceOnUse">
<stop stop-color="#1A40E2"/>
<stop offset="1" stop-color="#1A9AE2"/>
</linearGradient>
<linearGradient id="paint33_linear_61_3525" x1="54.1377" y1="135.829" x2="54.7287" y2="133.83" gradientUnits="userSpaceOnUse">
<stop stop-color="#1A40E2"/>
<stop offset="1" stop-color="#1A9AE2"/>
</linearGradient>
<linearGradient id="paint34_linear_61_3525" x1="91.7934" y1="121.993" x2="91.0996" y2="119.646" gradientUnits="userSpaceOnUse">
<stop stop-color="#1A40E2"/>
<stop offset="1" stop-color="#1A9AE2"/>
</linearGradient>
<linearGradient id="paint35_linear_61_3525" x1="89.2315" y1="122.75" x2="88.5377" y2="120.403" gradientUnits="userSpaceOnUse">
<stop stop-color="#1A40E2"/>
<stop offset="1" stop-color="#1A9AE2"/>
</linearGradient>
<linearGradient id="paint36_linear_61_3525" x1="90.4589" y1="122.387" x2="89.7651" y2="120.04" gradientUnits="userSpaceOnUse">
<stop stop-color="#1A40E2"/>
<stop offset="1" stop-color="#1A9AE2"/>
</linearGradient>
<linearGradient id="paint37_linear_61_3525" x1="93.0923" y1="128.997" x2="92.3984" y2="126.65" gradientUnits="userSpaceOnUse">
<stop stop-color="#1A40E2"/>
<stop offset="1" stop-color="#1A9AE2"/>
</linearGradient>
<linearGradient id="paint38_linear_61_3525" x1="90.5305" y1="129.754" x2="89.8366" y2="127.407" gradientUnits="userSpaceOnUse">
<stop stop-color="#1A40E2"/>
<stop offset="1" stop-color="#1A9AE2"/>
</linearGradient>
<linearGradient id="paint39_linear_61_3525" x1="91.7578" y1="129.391" x2="91.064" y2="127.044" gradientUnits="userSpaceOnUse">
<stop stop-color="#1A40E2"/>
<stop offset="1" stop-color="#1A9AE2"/>
</linearGradient>
<linearGradient id="paint40_linear_61_3525" x1="93.2955" y1="135.48" x2="92.7045" y2="133.481" gradientUnits="userSpaceOnUse">
<stop stop-color="#1A40E2"/>
<stop offset="1" stop-color="#1A9AE2"/>
</linearGradient>
<linearGradient id="paint41_linear_61_3525" x1="91.1133" y1="136.125" x2="90.5223" y2="134.126" gradientUnits="userSpaceOnUse">
<stop stop-color="#1A40E2"/>
<stop offset="1" stop-color="#1A9AE2"/>
</linearGradient>
<linearGradient id="paint42_linear_61_3525" x1="92.1587" y1="135.816" x2="91.5677" y2="133.817" gradientUnits="userSpaceOnUse">
<stop stop-color="#1A40E2"/>
<stop offset="1" stop-color="#1A9AE2"/>
</linearGradient>
<linearGradient id="paint43_linear_61_3525" x1="57.8944" y1="88.8511" x2="55.9644" y2="88.9777" gradientUnits="userSpaceOnUse">
<stop stop-color="#1A40E2"/>
<stop offset="1" stop-color="#1A9AE2"/>
</linearGradient>
<linearGradient id="paint44_linear_61_3525" x1="57.7562" y1="86.7425" x2="55.8263" y2="86.869" gradientUnits="userSpaceOnUse">
<stop stop-color="#1A40E2"/>
<stop offset="1" stop-color="#1A9AE2"/>
</linearGradient>
<linearGradient id="paint45_linear_61_3525" x1="57.8225" y1="87.7527" x2="55.8926" y2="87.8792" gradientUnits="userSpaceOnUse">
<stop stop-color="#1A40E2"/>
<stop offset="1" stop-color="#1A9AE2"/>
</linearGradient>
<linearGradient id="paint46_linear_61_3525" x1="63.0147" y1="88.8612" x2="60.8185" y2="89.0052" gradientUnits="userSpaceOnUse">
<stop stop-color="#1A40E2"/>
<stop offset="1" stop-color="#1A9AE2"/>
</linearGradient>
<linearGradient id="paint47_linear_61_3525" x1="62.8576" y1="86.4616" x2="60.6613" y2="86.6055" gradientUnits="userSpaceOnUse">
<stop stop-color="#1A40E2"/>
<stop offset="1" stop-color="#1A9AE2"/>
</linearGradient>
<linearGradient id="paint48_linear_61_3525" x1="62.9329" y1="87.6112" x2="60.7367" y2="87.7552" gradientUnits="userSpaceOnUse">
<stop stop-color="#1A40E2"/>
<stop offset="1" stop-color="#1A9AE2"/>
</linearGradient>
<linearGradient id="paint49_linear_61_3525" x1="93.4256" y1="88.8559" x2="95.105" y2="88.9771" gradientUnits="userSpaceOnUse">
<stop stop-color="#1A40E2"/>
<stop offset="1" stop-color="#1A9AE2"/>
</linearGradient>
<linearGradient id="paint50_linear_61_3525" x1="93.558" y1="87.0211" x2="95.2373" y2="87.1423" gradientUnits="userSpaceOnUse">
<stop stop-color="#1A40E2"/>
<stop offset="1" stop-color="#1A9AE2"/>
</linearGradient>
<linearGradient id="paint51_linear_61_3525" x1="93.4946" y1="87.9002" x2="95.1739" y2="88.0213" gradientUnits="userSpaceOnUse">
<stop stop-color="#1A40E2"/>
<stop offset="1" stop-color="#1A9AE2"/>
</linearGradient>
<linearGradient id="paint52_linear_61_3525" x1="87.9205" y1="88.7758" x2="89.8496" y2="88.9149" gradientUnits="userSpaceOnUse">
<stop stop-color="#1A40E2"/>
<stop offset="1" stop-color="#1A9AE2"/>
</linearGradient>
<linearGradient id="paint53_linear_61_3525" x1="88.0728" y1="86.6681" x2="90.0018" y2="86.8072" gradientUnits="userSpaceOnUse">
<stop stop-color="#1A40E2"/>
<stop offset="1" stop-color="#1A9AE2"/>
</linearGradient>
<linearGradient id="paint54_linear_61_3525" x1="87.9998" y1="87.6778" x2="89.9288" y2="87.8169" gradientUnits="userSpaceOnUse">
<stop stop-color="#1A40E2"/>
<stop offset="1" stop-color="#1A9AE2"/>
</linearGradient>
<linearGradient id="paint55_linear_61_3525" x1="82.8003" y1="88.7525" x2="84.9954" y2="88.9108" gradientUnits="userSpaceOnUse">
<stop stop-color="#1A40E2"/>
<stop offset="1" stop-color="#1A9AE2"/>
</linearGradient>
<linearGradient id="paint56_linear_61_3525" x1="82.9734" y1="86.354" x2="85.1685" y2="86.5124" gradientUnits="userSpaceOnUse">
<stop stop-color="#1A40E2"/>
<stop offset="1" stop-color="#1A9AE2"/>
</linearGradient>
<linearGradient id="paint57_linear_61_3525" x1="82.8904" y1="87.5031" x2="85.0856" y2="87.6614" gradientUnits="userSpaceOnUse">
<stop stop-color="#1A40E2"/>
<stop offset="1" stop-color="#1A9AE2"/>
</linearGradient>
<clipPath id="clip0_61_3525">
<rect width="148" height="167" fill="white"/>
</clipPath>
</defs>
</svg>
